<svg width="35" height="41" viewBox="0 0 35 41" fill="none" 
  xmlns="http://www.w3.org/2000/svg">
  <path d="M15.86 25.8479C15.3601 25.7289 14.902 25.6517 14.4651 25.5094C13.6348 25.239 12.7844 24.9949 12.0917 24.4273C11.6039 24.0277 11.1432 23.5952 10.6671 23.1813C10.1804 22.7583 9.75813 22.2753 9.35231 21.7776C9.23046 21.6284 9.13898 21.4549 9.03322 21.2924C8.97614 21.2046 8.92747 21.1098 8.86014 21.0308C8.649 20.7845 8.71377 20.5342 9.01566 20.4442C9.31792 20.3542 9.61871 20.2601 9.92024 20.1672C10.3121 20.0468 10.4366 20.1299 10.5709 20.5017C10.6887 20.8288 10.8043 21.1559 11.0586 21.4275C11.4147 21.808 11.7297 22.2252 12.1509 22.5439C12.2852 22.6456 12.3921 22.7843 12.5077 22.9095C12.9907 23.432 13.5579 23.8404 14.2107 24.1178C14.6557 24.3069 15.1168 24.4595 15.5727 24.6224C15.6474 24.6491 15.733 24.6451 15.8523 24.6601C15.8812 24.117 16.0232 23.6197 15.9668 23.0847C15.9083 22.5315 15.9376 21.9672 15.9507 21.4084C15.9595 21.0392 15.9236 20.6864 15.7926 20.3377C15.6477 19.9528 15.8186 19.6593 16.1988 19.5843C16.3291 19.6922 16.4425 19.828 16.5878 19.8953C16.7254 19.9593 16.8956 19.9663 17.0529 19.9744C17.5513 19.9996 18.0555 20.0402 18.5195 19.7972C18.6443 19.7317 18.7424 19.6165 18.8624 19.5393C19.0231 19.4357 19.1841 19.3193 19.3619 19.2593C19.55 19.196 19.6693 19.3168 19.6473 19.5155C19.5054 20.7977 19.5204 22.0869 19.5035 23.3724C19.4893 24.4548 19.5807 25.5383 19.6162 26.6214C19.6294 27.0225 19.6082 27.4246 19.617 27.8261C19.6349 28.6534 19.6671 29.4804 19.6847 30.3078C19.6989 30.9892 19.6894 31.6716 19.7106 32.3526C19.7421 33.3505 19.7941 34.3476 19.8336 35.3455C19.8603 36.0141 19.8618 36.6841 19.9093 37.3512C19.9584 38.0409 20.0403 38.7289 20.1263 39.415C20.1666 39.7367 19.8738 40.1139 19.5482 40.0934C19.1958 40.0715 18.8449 40.0232 18.4928 39.9987C18.3615 39.9895 18.2272 40.0089 18.0954 40.0261C17.6022 40.0894 17.11 40.1648 16.616 40.2201C16.4008 40.2442 16.2592 40.0788 16.2566 39.8113C16.2544 39.5456 16.2793 39.2796 16.2819 39.014C16.2866 38.491 16.2823 37.9678 16.2856 37.4449C16.2885 37.0314 16.3053 36.6179 16.3017 36.2044C16.2965 35.6328 16.2775 35.0612 16.2654 34.49C16.253 33.906 16.2479 33.3219 16.2292 32.7383C16.1922 31.5845 16.1838 30.4282 16.0949 29.2784C16.0246 28.3698 15.8424 27.4697 15.9057 26.5512C15.9097 26.4904 15.9138 26.429 15.9094 26.3686C15.8944 26.2003 15.8768 26.0327 15.86 25.8479Z" fill="black"/>
  <path d="M31.3742 26.8783C31.3105 26.9921 31.2571 27.1246 31.1715 27.2307C31.08 27.3441 30.9618 27.3617 30.8143 27.2841C30.1604 26.9391 29.5036 26.5984 28.8398 26.2727C28.3937 26.0535 27.9155 25.8947 27.484 25.6513C26.5527 25.1266 25.6068 24.6238 24.7513 23.9728C24.5789 23.8418 24.3821 23.7394 24.1863 23.6439C23.8127 23.4613 23.5587 23.1671 23.3157 22.8374C22.9769 22.3778 22.6062 21.9397 22.2227 21.516C21.7657 21.0106 21.2936 20.5177 20.804 20.0442C20.5274 19.7767 20.1984 19.5638 19.9016 19.316C19.8145 19.2432 19.7154 19.1437 19.6952 19.042C19.6693 18.9095 19.7882 18.8389 19.9177 18.7979C19.9785 18.7789 20.0407 18.7232 20.0751 18.6673C20.3858 18.1597 20.7056 17.6566 20.9884 17.1336C21.0799 16.9642 21.0865 16.7414 21.103 16.5405C21.1187 16.3487 21.0744 16.1508 21.1004 15.9612C21.1143 15.8591 21.1999 15.7329 21.2892 15.6853C21.362 15.6465 21.4967 15.6893 21.5886 15.7303C21.6606 15.7625 21.7104 15.8463 21.7679 15.9089C22.0719 16.24 22.376 16.5716 22.679 16.9038C23.2612 17.5417 23.8379 18.1846 24.426 18.8173C24.8303 19.2524 25.2526 19.6703 25.6602 20.1021C25.8436 20.296 26.0104 20.5053 26.1857 20.7069C26.72 21.321 27.2484 21.9401 27.7921 22.5461C28.1983 22.9987 28.6316 23.4269 29.04 23.8773C29.4077 24.2831 29.7579 24.7051 30.1165 25.1193C30.3141 25.3473 30.4828 25.6045 30.7708 25.7399C30.8213 25.7637 30.8608 25.8226 30.8915 25.8735C31.0163 26.0802 31.1433 26.2866 31.2542 26.5007C31.3065 26.6046 31.3266 26.7257 31.3742 26.8783Z" fill="black"/>
  <path d="M25.3023 0.668718C25.1512 1.60403 25.0056 2.54044 24.8468 3.47429C24.7652 3.95365 24.6689 4.43082 24.5602 4.9047C24.5178 5.08949 24.4226 5.26221 24.3524 5.44115C24.3348 5.48579 24.307 5.5319 24.3074 5.57691C24.3132 6.01236 24.1815 6.40794 24.0209 6.80936C23.8964 7.12003 23.8606 7.46766 23.7998 7.80175C23.7523 8.06376 23.7303 8.33052 23.6904 8.59436C23.678 8.67669 23.6546 8.76085 23.6194 8.83586C23.2736 9.57394 22.9414 10.319 22.5711 11.0446C22.1905 11.7904 21.7726 12.5171 21.3693 13.2508C21.2522 13.4634 21.1461 13.6855 21.0041 13.8802C20.7729 14.1971 20.5595 14.1667 20.381 13.8129C20.37 13.7913 20.3608 13.7682 20.3528 13.7455C20.0846 13.0005 19.517 12.5767 18.8122 12.2888C18.5616 12.1863 18.3424 12.1856 18.1302 12.3601C18.0372 12.4366 17.9501 12.5339 17.8085 12.4604C17.6537 12.3802 17.6533 12.2441 17.6387 12.0904C17.6072 11.7567 17.7203 11.4925 17.9585 11.2744C18.2699 10.9886 18.4379 10.6106 18.6582 10.2619C19.1785 9.43891 19.4731 8.49921 20.0619 7.70917C20.4435 7.19687 20.7136 6.60224 21.0389 6.04713C21.1556 5.84806 21.2859 5.65742 21.4122 5.46421C21.452 5.4031 21.5055 5.3504 21.5413 5.28783C22.032 4.43521 22.5242 3.58297 23.0094 2.72706C23.3801 2.07315 23.7471 1.41704 24.1021 0.754714C24.1793 0.610904 24.2089 0.438182 24.2408 0.274979C24.2752 0.100797 24.3824 -0.00861566 24.5588 0.00053254C24.6305 0.00419182 24.7011 0.0305394 24.7725 0.0470061C25.2292 0.149466 25.2698 0.201793 25.3023 0.668718Z" fill="black"/>
  <path d="M0.593445 19.1858C0.580637 19.4138 0.570025 19.5996 0.558316 19.8035C0.382304 19.5484 0.216539 19.319 0.0646788 19.0811C0.022597 19.0153 -0.01363 18.915 0.00503231 18.8462C0.121031 18.4184 0.073095 17.994 0.0134488 17.5669C0.00576429 17.5135 0.0317451 17.4553 0.0485778 17.3624C0.454758 17.5109 0.408285 17.8922 0.550997 18.1985C0.676144 18.1985 0.824345 18.2263 0.957543 18.1941C1.81857 17.9866 2.6796 17.7788 3.53331 17.5435C3.8707 17.4505 4.19052 17.2921 4.51473 17.1549C4.8609 17.0085 5.20377 16.8545 5.54665 16.6997C6.12188 16.4399 6.692 16.1694 7.27053 15.9173C8.06789 15.57 8.90074 15.3644 9.77019 15.2949C10.1321 15.266 10.4925 15.1972 10.8486 15.1221C11.7027 14.9421 12.5542 14.7493 13.406 14.5579C13.5242 14.5315 13.6355 14.4763 13.7533 14.4481C14.0651 14.3738 14.1617 14.4697 14.1097 14.7844C14.0413 15.2005 13.963 15.6154 13.9172 16.034C13.8957 16.2324 13.9129 16.4446 13.9604 16.6389C14.0468 16.992 14.1694 17.3364 14.2755 17.6847C14.364 17.9757 14.2978 18.1495 14.0245 18.2764C13.8949 18.3365 13.7482 18.3804 13.6062 18.3903C12.8663 18.4426 12.1253 18.4773 11.3854 18.5271C10.7417 18.5703 10.0981 18.6168 9.45622 18.6775C8.51322 18.7664 7.57425 18.8923 6.62138 18.8539C6.17348 18.8359 5.7201 18.9296 5.2733 18.904C4.53888 18.8623 3.8202 19.0039 3.09237 19.0292C2.49737 19.0497 1.90493 19.1367 1.3103 19.1825C1.08342 19.2004 0.854351 19.1858 0.593445 19.1858Z" fill="black"/>
  <path d="M20.3667 15.6817C20.321 16.0406 20.3199 16.4406 20.2119 16.8094C20.026 17.4454 19.7337 18.0097 19.0871 18.3482C18.671 18.5663 18.2828 18.8418 17.8506 19.0409C17.533 19.1872 17.2315 19.1858 16.8981 19.0972C16.2548 18.926 15.774 18.5417 15.3908 18.0214C14.4325 16.7194 14.771 14.9696 15.6199 14.0072C15.7838 13.8213 16.0191 13.6884 16.2402 13.5651C16.8728 13.2127 17.5242 13.0572 18.2659 13.2453C18.8196 13.3855 19.2894 13.6317 19.6872 14.0112C20.1479 14.4507 20.3503 15.0179 20.3667 15.6817Z" fill="black"/>
  <path d="M20.2771 3.91376C20.2782 4.13991 19.9869 4.56988 19.7787 4.63172C19.7135 4.65111 19.6334 4.64745 19.5664 4.62952C19.3912 4.58268 19.2177 4.52743 19.0468 4.46559C18.6589 4.3258 18.2809 4.15089 17.8843 4.0444C17.4876 3.93792 17.0752 3.87973 16.6661 3.83143C16.0407 3.75715 15.4128 3.70189 14.7849 3.65578C14.6198 3.64371 14.4489 3.68836 14.2828 3.718C13.2417 3.90352 12.2947 4.33532 11.3532 4.79785C10.8391 5.05034 10.386 5.35406 10.0333 5.80305C9.94399 5.91686 9.86971 6.0431 9.78555 6.1613C9.73651 6.23009 9.6926 6.31096 9.626 6.35743C9.49464 6.44928 9.34497 6.4405 9.21433 6.35378C9.09211 6.27218 9.07235 6.07859 9.17701 5.92527C9.3618 5.65448 9.53745 5.37126 9.75884 5.13194C10.1859 4.67087 10.5913 4.19151 11.1684 3.88303C12.1893 3.33743 13.2502 2.89794 14.3509 2.54848C14.4076 2.53055 14.4698 2.52141 14.5291 2.5225C15.479 2.54007 16.418 2.66852 17.3577 2.79476C17.8027 2.85477 18.2546 2.86611 18.6988 2.92942C19.1453 2.99273 19.5789 3.10946 19.9583 3.37768C20.1823 3.53576 20.276 3.67262 20.2771 3.91376Z" fill="black"/>
  <path d="M34.0832 15.3351C34.092 15.5349 34.0956 15.6806 34.1051 15.8258C34.1308 16.2166 34.1359 16.602 33.9613 16.9708C33.9123 17.0747 33.9083 17.2061 33.9061 17.3254C33.8999 17.6412 33.9277 17.9592 33.8999 18.2728C33.8808 18.4854 33.8296 18.7141 33.7246 18.8963C33.4944 19.2952 33.4553 19.7438 33.3254 20.1683C33.2653 20.3641 33.202 20.5598 33.1237 20.749C32.9119 21.2628 32.6908 21.7733 32.4738 22.2848C32.3304 22.6229 32.1716 22.9442 31.8247 23.1327C31.6505 23.2275 31.491 23.2794 31.3135 23.1627C31.1312 23.0427 30.9369 22.9358 30.7712 22.796C30.4989 22.5662 30.4781 22.1337 30.7679 21.9862C31.3578 21.6858 31.5103 21.1259 31.727 20.5869C31.8807 20.2045 32.0702 19.8364 32.2415 19.461C32.4837 18.93 32.7615 18.4115 32.9528 17.8626C33.0952 17.4542 33.1267 17.0067 33.2039 16.5756C33.3162 15.9495 33.3221 15.3205 33.239 14.6907C33.2233 14.5718 33.19 14.4554 33.1647 14.3376C33.1523 14.2791 33.116 14.2139 33.1303 14.1627C33.2756 13.6478 32.9865 13.2263 32.8394 12.7751C32.8131 12.6942 32.7472 12.6145 32.7527 12.538C32.7596 12.441 32.7973 12.3206 32.8661 12.2624C32.9173 12.2192 33.0783 12.2218 33.1215 12.2683C33.31 12.4703 33.5167 12.6737 33.6371 12.9163C34.0217 13.6928 34.2398 14.51 34.0832 15.3351Z" fill="black"/>
  <path d="M29.6086 14.4532C29.5969 15.5525 29.5636 16.4512 29.3583 17.3327C29.3181 17.5047 29.2339 17.6792 29.1274 17.8209C28.7714 18.2962 28.3952 18.7565 28.0293 19.2249C27.9638 19.3087 27.9001 19.3976 27.8551 19.4935C27.7585 19.6988 27.5865 19.7654 27.3805 19.7639C27.188 19.7625 26.8857 19.5704 26.8634 19.4181C26.8469 19.3062 26.8524 19.162 26.911 19.0731C27.271 18.5278 27.6088 17.9705 28.0183 17.4542C28.3322 17.0586 28.4903 16.5449 28.4647 16.0143C28.4259 15.2118 28.3758 14.41 28.3213 13.6083C28.3143 13.5047 28.2733 13.3917 28.2151 13.3049C27.9586 12.9215 27.6893 12.5467 27.4266 12.1676C27.323 12.0183 27.2107 11.8727 27.1269 11.7128C27.0101 11.4899 27.0398 11.3194 27.1869 11.1785C27.3519 11.0205 27.4687 11.0087 27.7153 11.1335C28.3835 11.472 28.8511 11.9964 29.1402 12.6825C29.2441 12.9288 29.3707 13.171 29.4315 13.4283C29.5259 13.8282 29.5731 14.2392 29.6086 14.4532Z" fill="black"/>
  <path d="M5.80391 22.3364C6.15337 22.5216 6.14934 22.5208 6.1036 22.863C6.09116 22.9567 6.0875 23.0657 6.12263 23.1495C6.28657 23.5389 6.41866 23.941 6.69238 24.2817C6.89657 24.5356 7.05282 24.8295 7.21529 25.1145C7.47034 25.5613 7.74442 25.9847 8.23989 26.2043C8.28234 26.2233 8.3149 26.2654 8.35113 26.2983C8.61972 26.5442 8.88173 26.7989 9.28461 26.8007C9.35377 26.8011 9.44562 26.8242 9.48624 26.8717C9.55979 26.9581 9.64249 27.0697 9.64469 27.1729C9.64652 27.2512 9.54332 27.3526 9.46245 27.4071C9.33328 27.4938 9.18654 27.5567 9.042 27.6168C8.95381 27.6533 8.85392 27.6907 8.76207 27.6845C8.19817 27.6453 7.64745 27.5575 7.22005 27.1337C6.72092 26.6386 6.17459 26.1882 5.76548 25.6067C5.72377 25.5474 5.64912 25.5002 5.63155 25.4362C5.53641 25.0864 5.28539 24.8284 5.1112 24.5261C5.06254 24.442 5.00216 24.3552 4.98642 24.2634C4.91616 23.8437 4.69551 23.4825 4.54768 23.0935C4.44009 22.811 4.59305 22.5615 4.88909 22.5596C5.22171 22.5571 5.54739 22.5534 5.80391 22.3364Z" fill="black"/>
  <path d="M15.9167 9.92341C15.5058 9.92341 15.0948 9.91609 14.6843 9.92487C13.7874 9.94427 13.0464 10.3475 12.3884 10.9121C12.2117 11.0636 12.1136 11.307 11.98 11.509C11.8604 11.6901 11.7451 11.8738 11.6225 12.0527C11.5226 12.1984 11.3785 12.2086 11.2343 12.1406C11.0868 12.071 10.9964 11.9287 11.0616 11.7805C11.2021 11.4618 11.2493 11.101 11.4963 10.828C11.8454 10.4416 12.163 10.0237 12.5333 9.65921C13.0196 9.18094 13.5982 8.85892 14.3022 8.80806C14.4951 8.79415 14.6846 8.7389 14.8756 8.70414C15.3744 8.61376 15.8666 8.63168 16.3518 8.78866C16.5219 8.84355 16.6789 8.92479 16.7155 9.10775C16.7631 9.34414 16.8132 9.59993 16.672 9.81473C16.6189 9.89523 16.4656 9.93183 16.3529 9.945C16.2102 9.9611 16.062 9.93256 15.9167 9.92341Z" fill="black"/>
</svg>
