<svg width="21" height="20" viewBox="0 0 21 20" fill="none" 
  xmlns="http://www.w3.org/2000/svg">
  <path d="M9.57387 11.302C9.49902 11.36 9.4562 11.3881 9.41918 11.4227C9.14242 11.681 8.85686 11.9309 8.59371 12.2023C8.29794 12.5074 8.02259 12.8322 7.73843 13.1486C7.66719 13.2279 7.59334 13.3048 7.52651 13.3877C7.36481 13.5885 7.20412 13.79 7.04804 13.995C6.96119 14.109 6.88654 14.2321 6.80069 14.3469C6.77868 14.3763 6.73406 14.3879 6.70204 14.4111C6.61639 14.4728 6.53214 14.5363 6.44749 14.5994C6.29581 14.7125 6.26999 14.8655 6.2894 15.0435C6.30802 15.2139 6.31222 15.3869 6.30962 15.5587C6.30461 15.8709 6.29221 16.1831 6.2776 16.4951C6.27179 16.621 6.25018 16.7458 6.23918 16.8715C6.21656 17.1288 6.20796 17.3833 6.26599 17.641C6.30361 17.8076 6.2748 17.8297 6.1121 17.8873C6.02546 17.918 5.9316 17.928 5.84175 17.9502C5.70647 17.9837 5.5714 18.0183 5.43712 18.0553C5.27963 18.0984 5.20039 18.0535 5.15056 17.8982C5.07492 17.6629 5.02409 17.4266 5.09373 17.1803C5.02669 17.0487 5.17277 16.8737 4.99667 16.7656C5.12535 16.6424 5.0445 16.4987 5.07372 16.3236C4.98447 16.3741 4.91703 16.3985 4.8674 16.4426C4.58444 16.6945 4.29567 16.9412 4.02792 17.2087C3.73656 17.4997 3.4638 17.8098 3.18725 18.1154C3.07698 18.2372 2.96872 18.257 2.84325 18.1489C2.73299 18.0541 2.63533 17.9446 2.52307 17.8525C2.43162 17.7772 2.32796 17.7163 2.2275 17.6525C2.20029 17.6354 2.16307 17.6348 2.13405 17.6194C2.01278 17.5547 1.99817 17.4879 2.09483 17.3861C2.24131 17.2317 2.3982 17.0872 2.54488 16.933C2.64034 16.8325 2.72558 16.7223 2.81544 16.6166C2.91429 16.5003 3.01075 16.3817 3.113 16.2684C3.50523 15.8341 3.91366 15.4157 4.3413 15.0159C4.34931 15.0085 4.34951 14.9932 4.36071 14.9596C4.27166 14.9596 4.18861 14.9606 4.10577 14.9594C3.57967 14.952 3.05357 14.9436 2.52747 14.937C2.4074 14.9354 2.28754 14.9408 2.16747 14.9406C1.99517 14.9402 1.93274 14.8695 2.00338 14.7223C2.08622 14.5499 2.08662 14.3787 2.06661 14.1975C2.05761 14.1158 2.0426 13.999 2.08702 13.9552C2.16147 13.8817 2.27733 13.8286 2.38279 13.812C2.56589 13.7832 2.755 13.7936 2.94091 13.7788C3.33913 13.7471 3.73676 13.7097 4.13478 13.6744C4.35931 13.6544 4.58344 13.6308 4.80837 13.6146C5.0461 13.5975 5.28424 13.5839 5.52257 13.5755C5.62243 13.5719 5.69887 13.5393 5.76531 13.4646C6.00344 13.1967 6.24558 12.9327 6.48472 12.666C6.79029 12.3254 7.09586 11.9848 7.39863 11.642C7.64017 11.3686 7.87811 11.0917 8.11664 10.8154C8.13245 10.7972 8.14005 10.7719 8.16047 10.7327C8.0532 10.7327 7.96255 10.7269 7.8731 10.7337C7.50089 10.7619 7.12908 10.7936 6.75727 10.8242C6.33263 10.8592 5.90819 10.8957 5.48335 10.9277C5.37048 10.9361 5.28203 10.9832 5.19779 11.0543C4.63867 11.5258 4.07515 11.992 3.51863 12.4666C3.36275 12.5997 3.21906 12.7489 3.08219 12.9015C2.91909 13.0835 2.81724 13.0291 2.68376 12.8959C2.56149 12.7737 2.43202 12.6582 2.30235 12.5433C2.12965 12.3903 2.12084 12.311 2.27653 12.149C2.53408 11.8807 2.79442 11.6151 3.05397 11.3486C3.16523 11.2343 3.2795 11.123 3.38796 11.0064C3.42738 10.964 3.454 10.9097 3.49942 10.8414C3.43759 10.829 3.39597 10.8132 3.35454 10.8136C3.20786 10.815 3.06057 10.8144 2.91489 10.8284C2.37098 10.8811 1.82828 10.9441 1.28417 10.9938C0.932769 11.026 0.579969 11.0455 0.227369 11.0633C0.0670781 11.0713 0.0180503 11.0344 0.00744431 10.8732C-0.00556306 10.6756 4.01069e-05 10.4758 0.012247 10.2781C0.0220526 10.1193 0.0592737 9.96226 0.0734817 9.80365C0.0804857 9.72514 0.111103 9.6788 0.184144 9.65942C0.235173 9.64584 0.287003 9.63066 0.339232 9.62626C0.730654 9.5939 1.12228 9.56114 1.5141 9.53397C2.17827 9.48783 2.84265 9.43849 3.50943 9.46526C3.56606 9.46745 3.62309 9.45367 3.71635 9.44328C3.65731 9.38256 3.6257 9.3446 3.58847 9.31304C3.41137 9.16282 3.23687 9.00941 3.05377 8.86718C2.88608 8.73674 2.70878 8.61888 2.53508 8.49603C2.50786 8.47685 2.47744 8.46247 2.44983 8.44389C2.29414 8.33782 2.28333 8.26291 2.41821 8.12488C2.53908 8.00143 2.67195 7.88976 2.79442 7.76791C2.87907 7.68381 2.95832 7.59392 3.03436 7.50203C3.14002 7.37459 3.24548 7.34443 3.40277 7.41015C3.71274 7.53959 3.9891 7.71977 4.22644 7.95828C4.42795 8.16064 4.63187 8.36059 4.83018 8.56595C4.92243 8.66123 4.99387 8.77809 5.09273 8.86498C5.25622 9.00901 5.43252 9.13865 5.60742 9.26909C5.63543 9.29007 5.68446 9.28707 5.72388 9.28767C6.19695 9.29626 6.67022 9.30405 7.14329 9.31005C7.20973 9.31084 7.27716 9.30665 7.3426 9.29566C7.67059 9.23993 7.99797 9.1818 8.32516 9.12227C8.34757 9.11828 8.36678 9.0973 8.38259 9.08751C8.38179 9.06914 8.38419 9.05935 8.38079 9.05615C8.10363 8.80006 7.82728 8.54317 7.54812 8.28948C7.32219 8.08413 7.09266 7.88297 6.86493 7.67962C6.4487 7.30807 6.03146 6.93752 5.61782 6.56317C5.54218 6.49485 5.46334 6.47008 5.36388 6.47468C4.79796 6.50105 4.23144 6.51663 3.66612 6.55119C3.38736 6.56817 3.1108 6.6185 2.83325 6.65346C2.73539 6.66585 2.63754 6.67983 2.53928 6.68822C2.44503 6.69641 2.37899 6.64447 2.36278 6.55878C2.32836 6.3776 2.28534 6.19362 2.28734 6.01124C2.28994 5.78112 2.33656 5.5516 2.35918 5.32127C2.37058 5.20402 2.44062 5.15887 2.54528 5.15568C2.95772 5.14289 3.37015 5.12951 3.78258 5.12351C3.9841 5.12072 4.07555 5.11233 4.25645 5.03782C4.22564 5.00026 4.20082 4.96171 4.1682 4.93155C3.89545 4.67965 3.62469 4.42536 3.34554 4.18066C3.23627 4.08497 3.1004 4.01985 2.98933 3.92576C2.80203 3.76736 2.62373 3.59796 2.44343 3.43116C2.31215 3.30971 2.17807 3.19046 2.05641 3.06001C1.93614 2.93097 1.95295 2.86785 2.06581 2.73501C2.25032 2.51767 2.50046 2.38962 2.72599 2.22802C2.80663 2.17029 2.89188 2.11935 2.98953 2.05583C3.03536 2.08599 3.08819 2.11276 3.13121 2.15051C3.25609 2.25998 3.37615 2.37464 3.49982 2.48551C3.53925 2.52087 3.57947 2.56381 3.6271 2.58019C3.82401 2.64771 3.96589 2.78155 4.10177 2.93177C4.19462 3.03444 4.31749 3.11015 4.41054 3.21283C4.54242 3.35825 4.65988 3.51706 4.78235 3.67087C4.83598 3.73819 4.88681 3.80791 4.95645 3.8994C5.02349 3.78014 5.00428 3.70823 5.00027 3.64031C4.98607 3.40919 4.96585 3.17847 4.95325 2.94735C4.94664 2.82909 5.02669 2.74859 5.14195 2.77756C5.41131 2.84527 5.68526 2.8229 5.95702 2.84148C6.16133 2.85526 6.29561 3.00108 6.28921 3.20324C6.2834 3.38242 6.26679 3.56121 6.25779 3.74019C6.25479 3.79932 6.25679 3.85925 6.26299 3.91797C6.28941 4.16847 6.31722 4.41897 6.34644 4.66906C6.37165 4.8842 6.42468 5.08416 6.60558 5.23198C6.66422 5.27992 6.69804 5.35963 6.73886 5.42735C6.88154 5.66426 7.10167 5.82846 7.29397 6.01863C7.40704 6.1305 7.53891 6.22398 7.60195 6.37999C7.61816 6.41994 7.66058 6.45091 7.6946 6.48207C7.91993 6.68822 8.14646 6.89317 8.37199 7.09912C8.3916 7.1169 8.40861 7.13808 8.42381 7.15985C8.60732 7.42373 8.85306 7.62588 9.09119 7.83583C9.12922 7.86939 9.16704 7.91314 9.18305 7.95968C9.23528 8.1101 9.35354 8.1876 9.50203 8.27889C9.50203 8.1075 9.50023 7.95968 9.50243 7.81186C9.50963 7.30028 9.51864 6.7885 9.52544 6.27692C9.52644 6.19721 9.53605 6.11132 9.51063 6.03941C9.48342 5.9627 9.42978 5.88779 9.36935 5.83206C9.20346 5.67944 9.01655 5.5482 8.85846 5.38819C8.60652 5.1333 8.36978 4.86323 8.12905 4.59735C7.88371 4.32628 7.58934 4.12972 7.24495 4.00687C7.20112 3.99129 7.1551 3.9783 7.11607 3.95413C7.03563 3.90439 7.01442 3.83228 7.07965 3.77195C7.28417 3.58318 7.32039 3.30172 7.47348 3.08558C7.5191 3.02126 7.54652 2.94415 7.59014 2.87803C7.61476 2.84068 7.65138 2.80712 7.6898 2.78375C7.81887 2.70544 8.11024 2.73601 8.23771 2.8219C8.50566 3.00268 8.71018 3.2402 8.90469 3.49509C9.03216 3.66228 9.20286 3.79672 9.35614 3.94394C9.36595 3.95333 9.39296 3.94514 9.42458 3.94514C9.42658 3.90599 9.42858 3.86903 9.43059 3.83208C9.44059 3.6473 9.454 3.46273 9.459 3.27795C9.4618 3.17228 9.4506 3.06641 9.44599 2.96053C9.42098 2.36985 9.39817 1.77916 9.37035 1.18868C9.36135 0.99771 9.33253 0.80774 9.32553 0.616772C9.32192 0.518291 9.33553 0.416214 9.36035 0.32073C9.39256 0.196281 9.4504 0.0800216 9.60128 0.0642407C9.84482 0.0388714 10.0888 0.00331445 10.3329 0.000118323C10.5444 -0.00267829 10.5898 0.0430663 10.6293 0.247818C10.6973 0.599992 10.7639 0.952964 10.809 1.30853C10.8364 1.52467 10.82 1.7462 10.8264 1.96534C10.839 2.39042 10.8516 2.81571 10.8694 3.24059C10.8746 3.36365 10.8978 3.4859 10.9172 3.64331C10.9827 3.59177 11.0199 3.5692 11.0487 3.53843C11.1077 3.47531 11.1636 3.40899 11.2186 3.34227C11.508 2.9905 11.8602 2.70744 12.2156 2.42758C12.2938 2.36585 12.365 2.29514 12.4413 2.23082C12.5434 2.14472 12.6518 2.15491 12.7016 2.27396C12.7475 2.38323 12.8227 2.43757 12.9218 2.48771C13.0975 2.5766 13.2255 2.72222 13.3386 2.88043C13.3872 2.94855 13.382 3.01986 13.3312 3.08319C13.2688 3.16089 13.2065 3.2402 13.1341 3.30811C12.6198 3.78993 12.0979 4.26376 11.5892 4.75137C11.3499 4.98069 11.132 5.23278 10.9108 5.48028C10.8768 5.51844 10.867 5.58695 10.8636 5.64249C10.8426 5.98687 10.8268 6.33165 10.8092 6.67623C10.8054 6.74935 10.7968 6.82246 10.799 6.89537C10.8092 7.24734 10.8218 7.59932 10.8346 7.95129C10.8356 7.97686 10.845 8.00203 10.8516 8.03239C10.9851 8.04598 11.0635 7.95009 11.1444 7.88197C11.3725 7.68941 11.5908 7.48505 11.8113 7.2833C12.0519 7.06317 12.2902 6.84103 12.5295 6.6197C12.8263 6.34504 13.1259 6.07356 13.4184 5.7943C13.5621 5.65727 13.706 5.51624 13.8227 5.35703C13.8799 5.27893 13.8885 5.15647 13.8961 5.0524C13.9223 4.68764 13.9427 4.32248 13.9568 3.95693C13.9674 3.68466 13.9636 3.41179 13.9686 3.13912C13.9714 2.98231 14.0698 2.87084 14.2169 2.8243C14.4628 2.74659 14.7074 2.66409 14.9489 2.574C15.1082 2.51467 15.2293 2.56621 15.2483 2.7386C15.2757 2.9891 15.2841 3.24179 15.3011 3.49349C15.3117 3.6515 15.3229 3.80931 15.3347 3.9789C15.3666 3.97431 15.3966 3.9789 15.4138 3.96612C15.7354 3.7292 16.0399 3.47551 16.2935 3.16209C16.4266 2.99769 16.5898 2.85706 16.7441 2.71084C17.0523 2.41859 17.3647 2.13054 17.6737 1.83909C17.8103 1.71005 17.866 1.69886 18.0219 1.80194C18.2598 1.95935 18.4957 2.11975 18.7295 2.28335C18.8755 2.38563 18.8855 2.51188 18.7589 2.64831C18.4555 2.97432 18.1551 3.30352 17.8422 3.61994C17.529 3.93655 17.201 4.23859 16.8816 4.54941C16.827 4.60255 16.7834 4.66667 16.7347 4.7258C16.7417 4.73878 16.7489 4.75176 16.7559 4.76475C16.8384 4.75696 16.9208 4.74977 17.0031 4.74098C17.3205 4.70722 17.6374 4.66966 17.955 4.6401C18.1015 4.62652 18.1473 4.69883 18.1359 4.84625C18.1195 5.06119 18.0527 5.27213 18.1077 5.49427C18.1369 5.61232 18.1223 5.74157 18.1237 5.86582C18.1249 5.97748 18.0535 6.0464 17.9562 6.05858C17.7217 6.08795 17.4926 6.16485 17.2478 6.11831C17.1336 6.09654 17.0071 6.10972 16.8908 6.13209C16.5188 6.20401 16.1506 6.2959 15.7778 6.36261C15.6157 6.39158 15.4458 6.38559 15.2799 6.38219C15.1514 6.37959 15.0482 6.41335 14.9561 6.50504C14.7252 6.73456 14.4939 6.96409 14.2531 7.18322C14.1264 7.29848 13.9716 7.38258 13.8435 7.49644C13.3918 7.89815 12.9472 8.30746 12.4981 8.71197C12.3661 8.83103 12.2284 8.94409 12.1023 9.1021C12.1829 9.10889 12.2654 9.12966 12.344 9.12008C12.8415 9.05935 13.3404 9.05495 13.8397 9.07713C14.1054 9.08891 14.3708 9.11468 14.6365 9.12986C14.8186 9.14025 14.9745 9.07453 15.1102 8.95368C15.4964 8.60929 15.871 8.25013 16.2753 7.92812C16.6227 7.65145 16.8942 7.30727 17.2038 6.99745C17.2636 6.93752 17.3379 6.89217 17.4139 6.83324C17.6556 6.9515 17.9 7.04878 18.0785 7.26232C18.1711 7.37299 18.2894 7.46268 18.3989 7.55857C18.5173 7.66244 18.5379 7.75253 18.4315 7.8646C18.199 8.1095 17.9578 8.34641 17.7155 8.58193C17.5346 8.75771 17.3463 8.92591 17.1498 9.10789C17.2222 9.17001 17.2944 9.17321 17.3629 9.17001C17.6881 9.15543 18.0128 9.13626 18.338 9.11928C18.3711 9.11748 18.4041 9.11768 18.4371 9.11828C18.8423 9.12607 19.2476 9.13725 19.653 9.14105C20.0654 9.14504 20.478 9.14185 20.9159 9.14185C20.9433 9.23474 20.9919 9.32702 20.9945 9.42051C21.0039 9.77129 20.9983 10.1227 20.9983 10.4916C20.9069 10.5747 20.774 10.6055 20.6311 10.6141C20.3652 10.63 20.0996 10.6518 19.8337 10.6654C19.7276 10.6708 19.619 10.6718 19.5147 10.6552C19.1031 10.5899 18.6906 10.6177 18.2778 10.6306C17.9318 10.6416 17.5856 10.6508 17.1984 10.662C17.2512 10.7239 17.2812 10.7691 17.3205 10.8038C17.5888 11.0415 17.8564 11.2803 18.1297 11.5124C18.2816 11.6414 18.4339 11.7745 18.6038 11.8763C18.7637 11.9722 18.8815 12.1013 18.9914 12.2421C19.0755 12.3498 19.0723 12.4203 18.9752 12.5234C18.8099 12.6987 18.6686 12.8869 18.5678 13.1084C18.4831 13.2946 18.3701 13.3084 18.2072 13.1766C18.0159 13.0218 17.8384 12.8424 17.6276 12.7211C17.3567 12.5651 17.1293 12.3619 16.9208 12.1414C16.6717 11.8781 16.3985 11.651 16.099 11.4507C15.8564 11.2882 15.6181 11.1195 15.3762 10.9563C15.3387 10.9311 15.2927 10.9113 15.2485 10.9047C14.9395 10.8586 14.6311 10.8068 14.3206 10.7755C13.6786 10.7107 13.0354 10.657 12.3927 10.6003C12.3352 10.5953 12.2768 10.5997 12.2008 10.5997C12.2146 10.6408 12.2158 10.6696 12.2308 10.6856C12.3803 10.8458 12.5325 11.0034 12.6832 11.1628C12.8193 11.3068 12.9462 11.4606 13.0911 11.5949C13.5293 12.0008 13.9806 12.3929 14.4144 12.8036C14.6163 12.9948 14.7916 13.2147 14.9751 13.4249C15.2043 13.6873 15.2027 13.6933 15.5485 13.6841C15.8346 13.6766 16.1202 13.649 16.4063 13.6442C16.6189 13.6406 16.8328 13.6492 17.0441 13.671C17.2774 13.6949 17.5074 13.7041 17.7389 13.658C17.8636 13.633 17.9182 13.6706 17.9668 13.79C18.0955 14.1056 18.0797 14.4424 18.1127 14.7722C18.1213 14.8581 18.0623 14.8947 17.9962 14.9097C17.9394 14.9226 17.8774 14.9155 17.8177 14.9131C17.579 14.9041 17.3405 14.8911 17.1015 14.8847C16.9418 14.8805 16.782 14.8843 16.6223 14.8863C16.5918 14.8867 16.5614 14.8947 16.5324 14.8991C16.5324 14.9266 16.527 14.9448 16.5332 14.951C16.7287 15.1398 16.93 15.3228 17.1207 15.5163C17.4097 15.8098 17.7705 16.0269 18.0183 16.3637C18.0457 16.4009 18.0805 16.4328 18.1145 16.4646C18.2694 16.6096 18.4193 16.761 18.5828 16.8959C18.7098 17.0005 18.8513 17.0886 18.9918 17.1755C19.1629 17.2814 19.1699 17.4072 19.0214 17.5385C18.7535 17.7754 18.4911 18.0189 18.2328 18.2658C18.1131 18.3803 18.0723 18.3988 17.9496 18.29C17.6663 18.0385 17.3855 17.7856 17.1482 17.4857C16.9462 17.2307 16.7127 17.0009 16.4976 16.756C16.3001 16.5313 16.1086 16.3016 15.9141 16.0743C15.8338 15.9806 15.753 15.8875 15.6451 15.7628C15.6397 15.8467 15.6267 15.8863 15.6365 15.919C15.7188 16.1925 15.6805 16.4732 15.6895 16.7508C15.6975 16.9965 15.6953 17.2426 15.6933 17.4883C15.6921 17.6278 15.6867 17.7674 15.6747 17.9062C15.6623 18.0503 15.5583 18.1264 15.4124 18.106C15.2873 18.0884 15.163 18.0648 15.0376 18.0507C14.9521 18.0411 14.8655 18.0389 14.7794 18.0409C14.6191 18.0449 14.5311 17.9909 14.5165 17.8351C14.4949 17.604 14.4818 17.3705 14.4879 17.1386C14.4971 16.7864 14.5147 16.4354 14.4524 16.0852C14.4292 15.955 14.441 15.8178 14.4124 15.6891C14.383 15.5561 14.3218 15.4316 14.3396 15.2882C14.3446 15.2489 14.3116 15.2031 14.2913 15.1628C14.2767 15.1338 14.2439 15.1112 14.2367 15.0815C14.1689 14.8052 13.9828 14.608 13.7937 14.4125C13.7658 14.3837 13.7352 14.3573 13.71 14.3266C13.2922 13.8144 12.7805 13.3955 12.3172 12.9283C11.882 12.4892 11.4423 12.0541 11.0043 11.6177C10.9907 11.6043 10.9725 11.5955 10.9426 11.5751C10.93 11.6087 10.9106 11.636 10.9108 11.6634C10.9142 12.1214 10.9184 12.5795 10.9256 13.0375C10.9312 13.3833 10.9394 13.7291 10.9506 14.0747C10.9543 14.1839 11.0071 14.262 11.0909 14.3441C11.3469 14.595 11.5848 14.8647 11.8265 15.13C12.0547 15.3801 12.2846 15.6286 12.5638 15.8236C12.6764 15.9023 12.8133 15.95 12.9158 16.0387C13.0552 16.1598 13.1781 16.3046 13.2317 16.4876C13.2433 16.5271 13.2129 16.5906 13.1829 16.628C13.1249 16.7003 13.052 16.7604 12.988 16.8281C12.8515 16.9726 12.7152 17.1172 12.582 17.2644C12.4779 17.3795 12.3923 17.3879 12.2746 17.2888C12.2228 17.2452 12.1695 17.2035 12.1015 17.1817C12.0761 17.1228 12.0651 17.0497 12.0231 17.0075C11.7831 16.7678 11.5368 16.5345 11.29 16.3016C11.258 16.2714 11.2116 16.2568 11.1392 16.2171C11.1392 16.3096 11.1326 16.3783 11.1402 16.4454C11.1976 16.9482 11.2056 17.4516 11.1908 17.9576C11.1792 18.3553 11.2078 18.7544 11.2238 19.1525C11.2278 19.2512 11.2584 19.3487 11.2662 19.4478C11.286 19.7031 11.215 19.8277 10.9709 19.8936C10.6493 19.9803 10.3219 20.0444 9.9853 19.9613C9.82661 19.9222 9.76958 19.8717 9.77198 19.7041C9.77558 19.4649 9.79599 19.2258 9.8066 18.9867C9.82001 18.6821 9.83782 18.3777 9.84042 18.0728C9.84362 17.7147 9.83121 17.3565 9.82881 16.9983C9.82741 16.7926 9.83421 16.5868 9.83361 16.3811C9.83341 16.3315 9.8182 16.2822 9.8072 16.2169C9.76558 16.2387 9.73896 16.2452 9.72275 16.262C9.45 16.5429 9.17264 16.8198 8.90989 17.1096C8.80383 17.2267 8.73039 17.3729 8.64154 17.5057C8.61572 17.5445 8.59051 17.584 8.56049 17.6194C8.404 17.804 8.34057 17.8064 8.15646 17.6416C8.11684 17.6062 8.07702 17.5658 8.02959 17.5451C7.80987 17.4486 7.71781 17.2504 7.62316 17.0529C7.57834 16.9592 7.59074 16.8735 7.65198 16.791C7.74263 16.6685 7.82708 16.5411 7.92153 16.4214C8.21329 16.0515 8.50206 15.6789 8.80503 15.318C8.98853 15.0992 9.19405 14.8987 9.39336 14.6935C9.50763 14.5759 9.55125 14.4336 9.55406 14.2764C9.56146 13.8647 9.56566 13.4528 9.57086 13.0411C9.57707 12.5495 9.58367 12.0579 9.58827 11.5661C9.58948 11.4906 9.58047 11.4143 9.57387 11.302Z" fill="black"/>
</svg>
