<svg width="20" height="26" viewBox="0 0 20 26" fill="none" 
  xmlns="http://www.w3.org/2000/svg">
  <path d="M6.84792 11.8869C6.87941 11.7484 6.89694 11.6656 6.91721 11.5833C7.02292 11.1553 7.12426 10.7261 7.23764 10.2999C7.29652 10.0778 7.36937 9.8586 7.44934 9.64258C7.55753 9.35092 7.61504 9.04971 7.6857 8.7493C7.76293 8.41943 7.80374 8.08876 7.83633 7.75783C7.89549 7.15196 7.96368 6.5421 7.95081 5.93544C7.93712 5.28286 7.82072 4.62975 7.61778 4.00637C7.37622 3.26488 7.00266 2.57621 6.55049 1.93213C6.46477 1.81005 6.34371 1.70894 6.22869 1.60916C5.94413 1.36262 5.6593 1.11581 5.36297 0.882803C5.24493 0.790184 5.09758 0.731535 4.96119 0.661739C4.76811 0.562751 4.57174 0.469601 4.37949 0.369021C4.33457 0.345402 4.30034 0.302144 4.26528 0.27136C4.30801 0.0683415 4.45015 -0.00623122 4.62625 0.000403367C4.76811 0.00544565 4.91902 0.0311878 5.04692 0.0882453C5.31915 0.209525 5.57823 0.357875 5.84362 0.49322C6.09312 0.620604 6.33221 0.7594 6.55241 0.935084C6.71947 1.06831 6.9257 1.15456 7.10618 1.27345C7.53397 1.55582 7.95793 1.84349 8.38079 2.13276C8.52786 2.23334 8.6659 2.34799 8.87733 2.30207C8.97921 2.63009 9.23282 2.83868 9.47054 3.05417C9.87889 3.42385 10.2516 3.81874 10.5381 4.28767C10.6255 4.43071 10.7358 4.56686 10.8599 4.6815C11.3197 5.10505 11.5769 5.65572 11.8858 6.17455C11.9907 6.3505 12.0729 6.54317 12.2013 6.70107C12.3785 6.91895 12.5256 7.14001 12.6291 7.40487C12.7831 7.79922 13.0052 8.16784 13.1785 8.55583C13.2719 8.76496 13.3198 8.99265 13.3957 9.20947C13.4351 9.32199 13.4902 9.42948 13.5526 9.57252C13.709 9.12296 13.8249 8.70578 13.9996 8.31354C14.1428 7.99242 14.348 7.69573 14.5413 7.3977C14.6763 7.18964 14.8429 7.00069 14.985 6.79661C15.1206 6.60182 15.2893 6.44524 15.5004 6.33272C15.8748 6.13341 16.2478 5.93119 16.6285 5.74357C16.7293 5.69394 16.8556 5.6751 16.9703 5.6743C17.1294 5.67324 17.2187 5.75683 17.2406 5.88714C17.2631 6.02222 17.1922 6.08246 17.0711 6.14828C16.8747 6.25496 16.6929 6.39137 16.5206 6.53308C16.2917 6.7215 16.0789 6.9285 15.8565 7.12489C15.7012 7.26209 15.6198 7.4383 15.5752 7.62991C15.4969 7.96589 15.4125 8.30186 15.3608 8.64208C15.3293 8.84961 15.3389 9.06616 15.3556 9.27661C15.3906 9.71662 15.447 10.155 15.4873 10.5948C15.5339 11.1027 15.7505 11.5507 16.0268 11.9681C16.3111 12.3975 16.6228 12.811 16.941 13.2181C17.1881 13.5342 17.4677 13.8261 17.7257 14.1345C18.5213 15.0856 19.1942 16.1102 19.6244 17.2665C19.7501 17.6041 19.8134 17.9677 19.8693 18.3246C19.9649 18.9358 20.0374 19.5515 19.9791 20.1717C19.9577 20.3988 19.9208 20.6265 19.8668 20.8484C19.754 21.3115 19.6436 21.7767 19.4971 22.2305C19.3522 22.6793 19.0874 23.0768 18.8192 23.4656C18.6223 23.7514 18.3986 24.02 18.1828 24.2933C17.8777 24.6792 17.4869 24.9616 17.038 25.1747C16.6211 25.3726 16.21 25.5823 15.7916 25.7768C15.6719 25.8323 15.5371 25.8639 15.4054 25.8864C15.1786 25.9257 14.9489 25.9496 14.7092 25.9814C14.6572 25.8477 14.8713 25.8363 14.8577 25.6752C14.7434 25.7529 14.6459 25.819 14.546 25.8872C14.5397 25.8129 14.56 25.7251 14.5238 25.6802C14.4071 25.5364 14.4581 25.4273 14.5528 25.3005C14.8297 24.9289 15.1143 24.5614 15.363 24.1723C15.5095 23.943 15.6078 23.6811 15.702 23.425C15.8272 23.0848 15.9208 22.7339 16.0402 22.3916C16.1076 22.1987 16.1334 22.0089 16.0337 21.8269C15.8461 21.4845 15.6538 21.1443 15.4492 20.8115C15.254 20.4938 15.0398 20.1873 14.8355 19.875C14.67 19.6223 14.4827 19.3798 14.3485 19.1123C14.1664 18.7492 14.0144 18.3766 13.9966 17.9547C13.9837 17.6479 13.9369 17.3437 13.9481 17.0324C13.9569 16.7949 14.0078 16.5818 14.1209 16.3754C14.179 16.2692 14.2228 16.1556 14.2732 16.0452C14.2573 16.0317 14.2417 16.0181 14.2258 16.0046C14.0557 16.111 13.8671 16.1973 13.7197 16.3276C13.3691 16.6373 13.0438 16.9711 12.8222 17.3873C12.7001 17.6168 12.613 17.8506 12.5853 18.1115C12.5251 18.6813 12.4539 19.2503 12.3698 19.8171C12.3391 20.0249 12.2627 20.2269 12.1997 20.4294C12.1846 20.4774 12.1433 20.5201 12.1069 20.5586C12.0488 20.6196 11.9828 20.6637 11.891 20.6119C11.8056 20.5636 11.7993 20.4936 11.8086 20.4071C11.8245 20.2606 11.8297 20.1127 11.8363 19.9655C11.8379 19.9307 11.833 19.8935 11.8209 19.8609C11.5903 19.2495 11.7571 18.6757 12.048 18.1402C12.2586 17.7524 12.2761 17.3679 12.2093 16.96C12.1348 16.5057 11.9371 16.0853 11.8152 15.6445C11.7141 15.2791 11.607 14.9104 11.5613 14.5365C11.4734 13.8192 11.1869 13.1735 10.8536 12.5443C10.7484 12.346 10.5674 12.1855 10.3965 11.9777C10.2831 12.2014 10.3102 12.4073 10.2678 12.5984C10.224 12.7959 10.207 13.0034 10.1317 13.1889C9.77235 14.0745 9.42152 14.9646 9.01865 15.8319C8.78503 16.3348 8.60208 16.844 8.46789 17.378C8.38627 17.7023 8.24769 18.0141 8.12061 18.3262C7.92671 18.802 7.84181 19.2877 7.89029 19.8007C7.93 20.2218 7.9341 20.6459 7.95629 21.0687C7.97327 21.3951 8.09843 21.6881 8.2696 21.9633C8.35861 22.1066 8.45857 22.2435 8.55854 22.3802C8.61112 22.4524 8.64453 22.5346 8.56894 22.5917C8.52622 22.6241 8.42324 22.6267 8.37532 22.5986C8.26084 22.5309 8.15101 22.4476 8.06009 22.3521C7.75745 22.0347 7.65694 21.631 7.55725 21.225C7.36143 20.427 7.16233 19.6295 6.94514 18.8368C6.89283 18.6457 6.78684 18.4581 6.66442 18.2981C6.48284 18.0608 6.3481 17.806 6.23499 17.5348C6.19144 17.4305 6.13283 17.3244 6.05533 17.2418C5.63685 16.7949 5.1866 16.3838 4.61064 16.1283C4.53669 16.0954 4.45316 16.0829 4.37401 16.0609C4.36415 16.0787 4.35429 16.0967 4.34415 16.1145C4.4244 16.2055 4.52656 16.2859 4.58106 16.3897C4.76181 16.7344 4.92587 17.0874 5.09567 17.4374C5.37858 18.0205 5.34161 18.642 5.31312 19.2585C5.30217 19.4947 5.23781 19.7287 5.19673 19.9633C5.05568 20.7675 5.32627 21.4314 5.91154 22.0004C6.14817 22.2305 6.34782 22.4956 6.57322 22.7366C6.78657 22.9646 6.99909 23.196 7.23737 23.3977C7.34692 23.4903 7.51508 23.5229 7.66133 23.5688C7.8933 23.6416 7.89467 23.6368 7.8618 23.8743C7.85468 23.9258 7.85249 23.9778 7.84729 24.0375C7.64161 24.1137 7.47153 24.0049 7.29625 23.9489C7.12426 23.8942 6.96212 23.8048 6.78739 23.7639C6.49763 23.6962 6.24266 23.5712 6 23.4088C5.86909 23.3212 5.72284 23.2549 5.53633 23.1535C5.59686 23.4131 5.72613 23.5665 5.84745 23.7259C6.03588 23.9735 6.22923 24.2188 6.39904 24.4778C6.58144 24.7559 6.78849 25.0133 7.05004 25.219C7.17931 25.3204 7.35869 25.3599 7.50932 25.4382C7.60929 25.4902 7.71117 25.5497 7.78977 25.6272C7.87002 25.706 7.83414 25.7954 7.73664 25.844C7.66461 25.8798 7.58272 25.9207 7.50549 25.9201C7.00731 25.9172 6.51489 26.064 6.0126 25.9666C5.56701 25.8801 5.11731 25.8137 4.67253 25.723C4.53368 25.6946 4.394 25.6338 4.27459 25.5584C3.79203 25.2538 3.36862 24.878 2.95342 24.4932C2.84825 24.3955 2.73733 24.3032 2.62395 24.2148C1.9976 23.7259 1.50243 23.1193 1.08998 22.4648C0.726546 21.8882 0.394883 21.2812 0.208922 20.6191C-0.0219542 19.7975 -0.0690578 18.9628 0.105674 18.1279C0.184824 17.749 0.319844 17.3798 0.444731 17.0109C0.637813 16.4412 0.850064 15.8775 1.0426 15.3075C1.25184 14.6878 1.4493 14.0652 1.56625 13.4195C1.63061 13.0636 1.76645 12.72 1.83245 12.3641C1.92584 11.8609 2.00636 11.3532 2.04964 10.8442C2.07784 10.5122 2.03074 10.1744 2.01732 9.83896C2.01239 9.71529 1.9924 9.59003 2.00499 9.46822C2.05128 9.02264 1.90695 8.60811 1.76535 8.20102C1.64129 7.84407 1.46272 7.50332 1.28607 7.16629C1.22308 7.04607 1.09819 6.95504 0.996586 6.85552C0.965912 6.82527 0.915793 6.81412 0.880189 6.78732C0.793097 6.72177 0.754754 6.63525 0.790631 6.53016C0.830069 6.41472 0.924011 6.39535 1.03301 6.41472C1.36303 6.4739 1.69579 6.52379 2.02225 6.59784C2.375 6.67772 2.69351 6.8112 2.99998 7.02749C3.33246 7.26209 3.6392 7.51473 3.93937 7.78277C4.15984 7.97942 4.41208 8.14369 4.62542 8.34671C4.93463 8.64102 5.29149 8.89128 5.54482 9.23681C5.68642 9.43001 5.8124 9.6378 5.91729 9.85197C6.12845 10.2827 6.32071 10.7219 6.51982 11.1579C6.62005 11.3787 6.71974 11.6024 6.84792 11.8869Z" fill="black"/>
</svg>
