<svg width="40" height="39" viewBox="0 0 40 39" fill="none" 
  xmlns="http://www.w3.org/2000/svg">
  <path d="M21.4677 24.7828C21.1911 24.9501 20.9079 25.1074 20.6393 25.2867C20.3776 25.4616 20.1405 25.6739 19.8748 25.8415C19.6216 26.0014 19.3644 26.1895 19.0317 26.1064C18.7752 26.0424 18.7116 25.9234 18.8104 25.6775C18.8601 25.5539 18.9366 25.4415 18.9973 25.3219C19.282 24.7591 19.6147 24.2138 19.8331 23.6261C19.9982 23.1826 20.2979 22.809 20.4168 22.3505C20.4406 22.2579 20.4742 22.1679 20.509 22.0589C20.4435 22.0508 20.3915 22.0289 20.352 22.0424C19.8434 22.2181 19.3208 22.1705 18.7979 22.1591C18.4704 22.1522 18.1418 22.1866 17.8136 22.2045C17.6613 22.2129 17.5256 22.2052 17.4422 22.0417C17.3584 21.8777 17.3851 21.7391 17.4916 21.6011C17.5958 21.4664 17.7071 21.3354 17.7953 21.1905C17.8535 21.0954 17.8761 20.9783 17.9131 20.8751C17.71 20.7587 17.5662 20.784 17.4648 20.9435C17.3159 21.1781 17.1941 21.4309 17.0334 21.6567C16.8878 21.8616 16.7213 22.0589 16.5321 22.2221C16.4461 22.2964 16.2818 22.307 16.1545 22.3022C14.9747 22.259 13.7953 22.2012 12.6156 22.1599C12.3254 22.1496 12.033 22.1738 11.7432 22.2005C11.3956 22.2323 11.2338 22.0446 11.3615 21.7131C11.453 21.4752 11.5723 21.2469 11.6883 21.0193C11.7688 20.8619 11.775 20.7243 11.6191 20.5717C11.5555 20.6577 11.4611 20.7273 11.4519 20.807C11.3992 21.2677 11.0172 21.5762 10.9136 22.0139C10.8767 22.1708 10.7164 22.1928 10.5795 22.1386C10.4346 22.0812 10.3014 21.9956 10.1536 21.9173C9.87732 22.2041 9.49895 22.1306 9.16852 22.1291C8.06085 22.1244 6.95502 22.1053 5.84662 22.1716C4.85167 22.2312 3.85268 22.2188 2.85553 22.2426C2.69781 22.2462 2.5401 22.2689 2.38348 22.2912C2.00219 22.3465 1.62784 22.3018 1.26082 22.2041C0.752907 22.0688 0.585678 21.6344 0.45431 21.2008C0.382588 20.9644 0.345264 20.7306 0.114729 20.5878C0.0785021 20.5655 0.038616 20.5048 0.043739 20.4678C0.0964326 20.0821 -0.138859 19.6862 0.136685 19.2976C0.248659 19.1399 0.214993 18.8782 0.246097 18.6638C0.277201 18.4475 0.307207 18.2313 0.336481 18.0146C0.360267 17.8357 0.381856 17.6568 0.404544 17.4778C0.415156 17.3933 0.409667 17.3018 0.440405 17.2253C0.703873 16.5648 0.916477 15.8908 1.37864 15.3123C1.6981 14.913 2.03695 14.5321 2.38055 14.1596C2.76771 13.7395 3.25878 13.4358 3.78352 13.1968C4.51501 12.8635 5.27541 12.6099 6.05484 12.4236C6.52506 12.3113 7.00698 12.2538 7.49586 12.3435C7.70883 12.3823 7.93132 12.368 8.14721 12.3947C8.44471 12.4317 8.74002 12.4847 9.07557 12.5371C9.15242 12.3274 9.24207 12.0936 9.32477 11.8572C9.61751 11.0185 10.0449 10.2646 10.7032 9.65501C11.0691 9.31616 11.4087 8.94072 11.8102 8.6509C12.2617 8.32523 12.766 8.07128 13.2534 7.79646C14.2772 7.2194 15.3769 7.24282 16.4885 7.41736C16.8226 7.46969 17.1648 7.51836 17.4553 7.72291C17.5721 7.80525 17.6657 7.74926 17.7327 7.64716C17.7923 7.55605 17.8417 7.45761 17.8908 7.35991C17.9065 7.32844 17.8963 7.28233 17.9149 7.25416C18.2611 6.72649 18.6029 6.19553 18.9619 5.67664C19.113 5.45818 19.3036 5.26754 19.4723 5.06115C20.131 4.25465 20.9137 3.59049 21.7872 3.02805C21.8776 2.96987 21.9577 2.89485 22.0408 2.82569C22.1527 2.73275 22.2537 2.6226 22.3763 2.54686C22.7053 2.34304 23.0419 2.15166 23.3779 1.95918C23.6413 1.80805 23.9074 1.66131 24.1738 1.51531C25.2035 0.951779 26.3053 0.574872 27.4294 0.251758C28.5901 -0.0819684 29.7593 -0.0596441 30.9251 0.176745C31.4345 0.279937 31.9267 0.472414 32.4236 0.633057C32.7925 0.752349 33.1529 0.898353 33.5236 1.01142C34.3557 1.26501 34.9935 1.79598 35.575 2.41293C35.6251 2.46599 35.6734 2.52307 35.7316 2.56625C36.4375 3.09063 36.8832 3.84371 37.439 4.49981C37.6432 4.7406 37.8715 4.96088 38.0838 5.19508C38.1643 5.284 38.2517 5.37548 38.3011 5.48197C38.6378 6.20943 39.007 6.92555 39.2848 7.67534C39.5976 8.5199 39.7916 9.40874 39.7085 10.317C39.6536 10.9171 39.5047 11.5084 39.3953 12.1031C39.3715 12.2322 39.3455 12.3625 39.3053 12.4873C39.2463 12.6699 39.1929 12.8587 39.1033 13.0267C38.8632 13.4775 38.5697 13.9027 38.363 14.3674C38.1083 14.9397 37.6315 15.085 37.095 15.1095C36.6354 15.1308 36.1729 15.0839 35.7115 15.0649C35.0916 15.0396 34.4713 14.9826 33.8522 14.9932C32.952 15.0085 32.0529 15.0748 31.1531 15.1143C30.7513 15.1322 30.3492 15.1348 29.9474 15.1509C29.415 15.1725 28.8829 15.2003 28.2981 15.2277C28.4606 15.6365 28.5931 16.0361 28.7757 16.4111C28.974 16.8188 29.1756 17.218 29.1837 17.6835C29.1841 17.6955 29.1844 17.7091 29.1895 17.7193C29.4826 18.307 29.2554 18.8855 29.1518 19.463C29.0878 19.8209 28.9883 20.1721 28.9089 20.5275C28.8167 20.9413 28.6333 21.3212 28.3472 21.6194C28.1177 21.8583 27.7727 21.9132 27.4378 21.918C27.1103 21.9227 26.7817 21.9114 26.455 21.9315C26.2658 21.9432 26.0795 22.0029 25.9427 22.0307C25.5811 22.4713 25.2298 22.8723 24.9089 23.2964C24.5294 23.7985 24.1785 24.3221 23.81 24.8322C23.6893 24.9995 23.5499 25.1532 23.4214 25.3153C22.885 25.9908 22.3562 26.6721 21.8117 27.3407C21.4121 27.8314 20.992 28.3053 20.5825 28.7876C20.2525 29.1762 19.9129 29.5571 19.5986 29.9578C19.0285 30.6849 18.4722 31.4233 17.9138 32.16C17.7967 32.3147 17.7031 32.4871 17.586 32.6415C16.7505 33.7448 15.9155 34.8484 15.0717 35.9455C14.843 36.243 14.5784 36.5123 14.3416 36.8043C14.1129 37.0864 13.9179 37.3982 13.672 37.6635C13.5205 37.8267 13.3138 37.9541 13.1092 38.0477C12.905 38.1414 12.6873 37.9233 12.7689 37.7067C12.8659 37.4483 13.0078 37.2072 13.1334 36.9598C13.1604 36.9064 13.2157 36.8636 13.2311 36.8083C13.335 36.4391 13.5999 36.1822 13.8498 35.9177C14.5429 35.1836 15.1529 34.3815 15.7424 33.5666C16.1742 32.9697 16.5233 32.3136 16.9471 31.7106C17.182 31.3765 17.3521 30.9967 17.6698 30.7134C17.8352 30.566 17.9303 30.3387 18.0536 30.1452C18.5425 29.3778 19.0171 28.6006 19.5232 27.8446C19.8196 27.4018 20.1694 26.9952 20.4878 26.5667C20.6374 26.3655 20.7739 26.1543 20.909 25.9428C21.1047 25.6362 21.2957 25.3259 21.4846 25.0148C21.5131 24.968 21.5212 24.9087 21.5387 24.8553C21.5157 24.8319 21.4915 24.8074 21.4677 24.7828ZM17.9676 31.2312C18.0613 31.1427 18.1678 31.0636 18.2461 30.9634C18.4785 30.6659 18.6889 30.3508 18.9278 30.0592C19.3131 29.5886 19.7219 29.1374 20.1076 28.6672C20.6382 28.0202 21.1625 27.3678 21.6792 26.7095C22.436 25.746 23.1865 24.777 23.9333 23.8058C24.0958 23.5947 24.221 23.355 24.3831 23.1438C24.6045 22.8559 24.8591 22.5928 25.0736 22.3C25.2778 22.0212 25.449 21.7178 25.6349 21.4251C25.4607 21.4083 25.3272 21.4489 25.1951 21.4935C25.0578 21.54 24.9225 21.5927 24.7849 21.6377C24.6242 21.6904 24.4482 21.7134 24.3026 21.7925C23.6856 22.1266 22.9984 22.3384 22.4762 22.839C22.4166 22.8961 22.3299 22.9254 22.2545 22.9653C22.0506 23.0732 21.8878 23.0674 21.7996 22.9309C21.6866 22.756 21.8183 22.6356 21.9193 22.5167C22.0452 22.3688 22.2003 22.2404 22.3024 22.0783C22.702 21.4419 23.0727 20.7876 23.4781 20.1549C24.0025 19.3364 24.5408 18.5262 25.0911 17.7248C25.4143 17.2542 25.774 16.8085 26.1146 16.3497C26.3671 16.0093 26.6163 15.6665 26.863 15.3221C26.8868 15.2888 26.8824 15.235 26.8926 15.1824C26.8315 15.1608 26.788 15.1377 26.7422 15.1308C26.0122 15.0166 25.284 15.1048 24.5565 15.1593C24.4515 15.167 24.3172 15.2435 24.2587 15.3298C24.0618 15.6215 23.8744 15.9226 23.7171 16.237C23.4236 16.8235 23.1715 17.431 22.87 18.0132C22.4667 18.7919 22.1487 19.6053 21.823 20.417C21.6024 20.9666 21.3843 21.5177 21.1483 22.0607C20.7754 22.9188 20.3875 23.7703 20.0088 24.6255C19.9323 24.7986 19.8668 24.9768 19.7717 25.2139C20.1376 25.0137 20.4775 24.8937 20.7293 24.6734C21.0465 24.3957 21.437 24.253 21.7656 24.0027C21.9767 23.842 22.2226 23.7242 22.4605 23.602C22.6288 23.5156 22.7675 23.6027 22.7426 23.7879C22.7258 23.9116 22.653 24.0342 22.5827 24.1432C22.4184 24.3983 22.2332 24.6401 22.07 24.8959C21.9134 25.1411 21.7352 25.3833 21.6375 25.6523C21.5332 25.9392 21.265 26.0698 21.1267 26.3377C20.8394 26.8942 20.4435 27.3952 20.0874 27.9163C19.6977 28.4868 19.3014 29.0529 18.911 29.623C18.6644 29.983 18.4221 30.3468 18.1788 30.7094C18.0708 30.8701 17.9405 31.023 17.9768 31.2393C17.8406 31.2868 17.7451 31.3622 17.7517 31.5488C17.9354 31.4874 17.9662 31.3688 17.9676 31.2312ZM37.6827 14.3755C37.7643 14.2258 37.8232 14.0915 37.9052 13.973C38.3505 13.3271 38.7355 12.656 38.8511 11.8627C38.8632 11.7789 38.8892 11.6969 38.9108 11.6146C39.201 10.5241 39.2419 9.43582 38.9203 8.34023C38.6996 7.58898 38.344 6.89628 38.0212 6.19004C37.9169 5.96243 37.7523 5.75971 37.5986 5.55808C37.4665 5.38426 37.3047 5.2335 37.1675 5.06334C36.8089 4.61838 36.4653 4.1606 36.0994 3.72149C35.5512 3.06355 34.8933 2.52161 34.2115 2.01041C34.0004 1.85196 33.7651 1.71328 33.5214 1.61265C33.038 1.41322 32.5433 1.2394 32.0489 1.06741C30.8051 0.63452 29.5416 0.362633 28.2158 0.616953C28.0607 0.646594 27.8985 0.643303 27.7456 0.67953C26.9742 0.86286 26.2317 1.13913 25.5061 1.4509C24.2261 2.00053 23.0299 2.69835 21.9405 3.57182C21.4864 3.93592 20.9679 4.22135 20.5906 4.68059C20.4596 4.83976 20.2949 4.97113 20.1636 5.12995C19.8002 5.56943 19.439 6.0111 19.0925 6.46375C18.9388 6.66465 18.8524 6.92263 18.6816 7.10339C18.387 7.41516 18.2311 7.7917 18.0913 8.17739C17.9413 8.59126 17.6785 8.66444 17.354 8.35816C17.3273 8.33328 17.3027 8.30583 17.2775 8.27949C17.1392 8.13275 16.9793 8.04822 16.7703 8.02297C16.4088 7.97906 16.0531 7.87733 15.6912 7.84586C15.1342 7.79756 14.5718 7.75328 14.0474 8.03468C13.5992 8.27546 13.1392 8.49429 12.6961 8.74349C12.0418 9.11124 11.502 9.62061 10.9908 10.164C10.633 10.5446 10.2798 10.9222 10.1104 11.436C10.0467 11.6296 9.92489 11.803 9.8411 11.9907C9.67131 12.3702 9.73205 12.78 9.68887 13.1767C9.6424 13.6026 9.77413 13.996 9.85939 14.3967C9.91904 14.6777 9.97576 14.6935 10.2652 14.6613C10.3241 14.6547 10.3849 14.6554 10.4438 14.6627C11.4896 14.7882 12.5307 14.6613 13.5732 14.6042C14.3362 14.5625 15.1039 14.4739 15.8621 14.5244C16.5683 14.5713 17.2683 14.5899 17.9738 14.5606C18.5088 14.5383 19.0449 14.5522 19.5806 14.5434C20.0304 14.5361 20.4812 14.4955 20.9298 14.5116C21.8282 14.5438 22.7258 14.6046 23.6238 14.6532C23.6724 14.6558 23.7255 14.6646 23.7694 14.6496C24.1672 14.5145 24.5821 14.6298 24.9891 14.5522C25.6393 14.4285 26.298 14.4827 26.9537 14.5654C27.155 14.5906 27.3639 14.55 27.5685 14.5584C28.1854 14.5844 28.8031 14.6587 29.419 14.643C30.5255 14.6144 31.631 14.5292 32.7372 14.4772C33.3421 14.4487 33.9477 14.4238 34.5533 14.4263C35.0766 14.4289 35.5995 14.4757 36.1224 14.4973C36.6435 14.5197 37.1649 14.5288 37.6827 14.3755ZM11.6477 20.3357C11.8866 20.3405 11.9946 20.1817 12.0824 20.0291C12.4513 19.3869 12.8069 18.737 13.1696 18.0911C13.2764 17.9008 13.3932 17.716 13.4974 17.5243C13.534 17.457 13.5472 17.3765 13.5739 17.2934C13.287 17.2934 13.0316 17.2784 12.7795 17.2992C12.6397 17.311 12.49 17.3593 12.4278 17.5206C12.284 17.8942 12.1142 18.2602 12.0012 18.6429C11.8541 19.1406 11.7501 19.6507 11.6323 20.1568C11.6202 20.2095 11.6411 20.2695 11.6477 20.3357ZM26.2347 21.5707C26.4436 21.4137 26.6456 21.3548 26.7279 21.1408C26.4202 21.0661 26.3492 21.1217 26.2347 21.5707ZM5.09794 21.6282C5.09794 21.6198 5.09794 21.6113 5.09757 21.6029C4.99694 21.6029 4.89631 21.6029 4.79568 21.6029C4.79568 21.6113 4.79568 21.6198 4.79605 21.6282C4.89668 21.6282 4.99731 21.6282 5.09794 21.6282ZM23.4306 15.2779C23.4317 15.261 23.4324 15.2446 23.4335 15.2277C23.4035 15.2138 23.3731 15.1878 23.3431 15.1889C23.3018 15.19 23.2608 15.2109 23.2194 15.2233C23.222 15.2416 23.2245 15.2599 23.2271 15.2779C23.2952 15.2779 23.3629 15.2779 23.4306 15.2779Z" fill="black"/>
  <path d="M33.64 25.8008C33.5203 25.7814 33.3842 25.7727 33.2565 25.7357C32.9765 25.6548 32.8968 25.5022 32.9458 25.211C33.0223 24.7576 33.266 24.3752 33.4555 23.969C33.5726 23.7183 33.6689 23.4578 33.7743 23.2016C33.7878 23.1683 33.7918 23.1288 33.8123 23.101C34.2683 22.4767 34.4937 21.7343 34.8519 21.0599C35.003 20.7755 35.0601 20.4414 35.1622 20.1308C35.321 19.647 35.4733 19.1611 35.646 18.6824C35.7184 18.4815 35.8531 18.303 35.931 18.1035C36.0851 17.7098 36.2205 17.3084 36.3614 16.9095C36.4082 16.7763 36.4561 16.657 36.6376 16.6874C36.8393 16.7211 36.8385 16.8795 36.8418 17.0219C36.844 17.1163 36.8147 17.2147 36.7825 17.3058C36.6508 17.6813 36.5125 18.0541 36.3771 18.4281C36.365 18.4618 36.3368 18.5057 36.3482 18.5295C36.5268 18.9108 36.2527 19.2313 36.2044 19.5808C36.0895 20.4074 35.6946 21.1367 35.3547 21.8854C35.1545 22.3263 34.9862 22.7841 34.838 23.2452C34.7758 23.4391 34.7103 23.6653 34.9068 23.8596C35.0049 23.9566 34.9562 24.0919 34.8772 24.1948C34.5427 24.6291 34.2972 25.1158 34.0472 25.5999C33.9623 25.7628 33.8258 25.8158 33.64 25.8008Z" fill="black"/>
  <path d="M12.089 28.6009C11.9807 28.8776 11.9027 29.1213 11.7915 29.3485C11.6319 29.6746 11.4289 29.9801 11.2803 30.3105C11.1782 30.5378 11.15 30.7969 11.0651 31.0333C10.9594 31.3282 10.8134 31.6089 10.7138 31.9053C10.5751 32.3191 10.465 32.7425 10.3384 33.1608C10.3036 33.2764 10.2652 33.3931 10.2103 33.5003C9.87805 34.1484 9.5414 34.7943 9.20401 35.4394C9.07557 35.6849 8.93944 35.9264 8.80991 36.1712C8.64231 36.4874 8.3825 36.6305 8.03085 36.6034C7.89179 36.5928 7.81788 36.5295 7.7714 36.3937C7.70261 36.1925 7.74615 36.0088 7.81385 35.8247C8.05061 35.184 8.44361 34.6245 8.75685 34.0236C8.87431 33.7986 8.9936 33.5743 9.11033 33.3488C9.58933 32.4238 10.057 31.4925 10.5506 30.5755C10.8704 29.9808 11.2309 29.4082 11.5653 28.8216C11.6115 28.7411 11.5943 28.6225 11.644 28.546C11.6967 28.4652 11.8167 28.3473 11.8672 28.3642C11.9565 28.3945 12.0147 28.5149 12.089 28.6009Z" fill="black"/>
  <path d="M13.4462 30.6275C13.1454 30.6216 12.965 30.3486 13.0748 30.0292C13.1696 29.7536 13.2881 29.4858 13.4107 29.2212C13.5333 28.957 13.6768 28.7027 13.8056 28.4414C14.2187 27.6031 14.6274 26.7629 15.042 25.9253C15.2137 25.5787 15.4017 25.2406 15.5712 24.8934C15.8844 24.2519 16.1863 23.6049 16.5003 22.9642C16.5852 22.7907 16.6836 22.6199 16.8 22.4662C16.9419 22.2788 17.1183 22.2667 17.3115 22.3996C17.4623 22.5031 17.4835 22.6502 17.3624 22.8471C17.0107 23.4168 16.7246 24.0151 16.4516 24.6284C16.1852 25.2267 15.9609 25.8404 15.6981 26.4368C15.3985 27.1164 15.195 27.8266 14.9132 28.5091C14.7661 28.8655 14.5462 29.1916 14.3662 29.5352C14.248 29.7606 14.1386 29.9907 14.0321 30.222C13.897 30.5162 13.7338 30.6329 13.4462 30.6275Z" fill="black"/>
  <path d="M31.3785 26.9381C31.8191 27.1917 31.8681 27.4036 31.6263 27.7765C31.5359 27.9155 31.4777 28.0754 31.4082 28.2273C31.2874 28.4915 31.1685 28.7564 31.0503 29.0214C30.6639 29.8861 30.3887 30.7895 30.1292 31.6981C30.1128 31.7563 30.078 31.8193 30.0872 31.8738C30.164 32.3206 29.9778 32.7088 29.8241 33.1044C29.8021 33.1607 29.7823 33.223 29.7443 33.2676C29.4153 33.6504 29.2635 34.1198 29.064 34.571C28.9484 34.8319 28.8093 35.083 28.6948 35.349C28.5488 35.6882 28.1814 35.8134 27.8561 35.9429C27.702 36.0044 27.5776 35.8858 27.4876 35.764C27.3742 35.6106 27.3771 35.4456 27.4759 35.2857C27.623 35.0482 27.7804 34.8173 27.9231 34.5776C28.1386 34.2146 28.3614 33.8542 28.5517 33.4776C28.7636 33.0576 28.9477 32.6232 29.1343 32.191C29.4263 31.5152 29.6678 30.8137 30.0081 30.1634C30.4264 29.3639 30.6701 28.4966 31.0602 27.6887C31.1231 27.5584 31.144 27.4087 31.1999 27.2744C31.2475 27.1573 31.3178 27.0501 31.3785 26.9381Z" fill="black"/>
  <path d="M23.9703 33.799C23.5667 33.8004 23.424 33.627 23.5564 33.2607C23.667 32.9547 23.8338 32.6686 23.9828 32.3773C24.1921 31.9678 24.408 31.5617 24.6213 31.154C24.7728 30.8646 24.932 30.5784 25.074 30.2842C25.2478 29.9241 25.4088 29.5578 25.572 29.1926C25.9818 28.2742 26.3939 27.3561 26.7953 26.4339C26.8769 26.2466 26.9065 26.0376 26.9757 25.8444C27.0653 25.5934 27.1444 25.3332 27.2776 25.106C27.3628 24.9607 27.526 24.8487 27.6761 24.7583C27.8074 24.6793 27.9399 24.7796 27.8942 24.9204C27.7262 25.4386 27.6691 25.9878 27.4236 26.4848C27.0748 27.191 26.7334 27.9013 26.4122 28.6203C26.1794 29.141 25.9869 29.6793 25.7725 30.2081C25.6675 30.4668 25.539 30.7171 25.4465 30.9798C25.2942 31.4109 25.1643 31.8496 25.0213 32.284C24.9759 32.4216 24.9378 32.5665 24.8643 32.6887C24.7271 32.9167 24.5741 33.1278 24.4958 33.3942C24.4237 33.6401 24.2169 33.7854 23.9703 33.799Z" fill="black"/>
  <path d="M4.8941 31.8204C4.94973 31.7069 4.99327 31.5953 5.05511 31.4951C5.51325 30.7519 6.04092 30.0427 6.41746 29.2603C6.78339 28.5003 7.28874 27.8343 7.68284 27.0981C7.95107 26.5968 8.25332 26.1137 8.54167 25.6234C8.59107 25.5396 8.63169 25.4422 8.70268 25.3811C8.87174 25.2359 9.01519 25.0785 9.0891 24.8637C9.12643 24.755 9.22193 24.6939 9.31634 24.7517C9.37855 24.7898 9.41588 24.8992 9.42649 24.9819C9.4349 25.0463 9.39063 25.1213 9.35989 25.1868C9.14582 25.6457 8.92443 26.1013 8.71439 26.5624C8.5435 26.9374 8.39347 27.322 8.21746 27.6945C8.115 27.9112 7.97815 28.1113 7.86068 28.3214C7.80323 28.4242 7.75859 28.5343 7.70114 28.6372C7.44901 29.088 7.1925 29.5366 6.94147 29.9878C6.90085 30.061 6.87743 30.1437 6.84633 30.2224C6.79839 30.3442 6.76692 30.4756 6.70069 30.5861C6.52687 30.877 6.33403 31.1562 6.15729 31.4453C6.08337 31.5664 6.04165 31.7077 5.96591 31.8273C5.87625 31.9693 5.77562 32.1065 5.66292 32.2306C5.44666 32.4688 5.2571 32.4564 5.07634 32.1918C5.00242 32.0835 4.95887 31.955 4.8941 31.8204Z" fill="black"/>
  <path d="M30.1358 22.6956C30.0992 22.6956 30.0626 22.6981 30.0264 22.6952C29.7234 22.67 29.6707 22.6154 29.7088 22.3026C29.7289 22.1361 29.7703 21.967 29.8339 21.8122C30.1289 21.0946 30.4864 20.3986 30.7231 19.6631C31.0027 18.7951 31.5194 18.0256 31.7166 17.125C31.7686 16.8876 31.9541 16.6782 32.0844 16.4598C32.1887 16.2849 32.2944 16.1092 32.4163 15.9464C32.4591 15.8893 32.5521 15.8395 32.6219 15.8395C32.7449 15.8395 32.7932 15.9592 32.7621 16.0503C32.6578 16.3548 32.6498 16.6845 32.5477 16.9798C32.3098 17.6663 32.0145 18.3326 31.7434 19.0077C31.7071 19.0981 31.6826 19.1936 31.6394 19.2804C31.3138 19.9387 31.1996 20.661 30.9914 21.3552C30.867 21.7709 30.6708 22.1672 30.4776 22.558C30.4322 22.6495 30.2694 22.6831 30.1607 22.7431C30.1523 22.7274 30.1443 22.7117 30.1358 22.6956Z" fill="black"/>
  <path d="M22.3621 31.2898C22.6402 31.678 22.53 32.0128 22.4605 32.3407C22.4356 32.4578 22.3811 32.5712 22.3251 32.6788C21.9852 33.3335 21.6353 33.983 21.3023 34.6413C21.2101 34.8232 21.1739 35.0325 21.0963 35.2228C20.8588 35.8053 20.6283 36.3915 20.3652 36.9627C20.21 37.2998 20.0992 37.6664 19.8002 37.9292C19.7094 38.0089 19.6798 38.163 19.6344 38.2874C19.5686 38.4674 19.4302 38.5103 19.2601 38.5139C19.0746 38.5179 18.9172 38.4462 18.8261 38.294C18.7873 38.2292 18.8005 38.0957 18.8433 38.0258C19.1214 37.5705 19.4145 37.1249 19.7021 36.6751C19.7471 36.6045 19.7929 36.5335 19.8302 36.4589C20.2635 35.5945 20.6931 34.728 21.1278 33.8644C21.3404 33.4421 21.5764 33.0316 21.7755 32.6031C21.9281 32.2745 22.0349 31.925 22.171 31.5884C22.2084 31.4969 22.2786 31.4182 22.3621 31.2898Z" fill="black"/>
  <path d="M5.2465 24.8209C5.21869 24.8751 5.18868 25.0229 5.09867 25.0906C4.8158 25.3028 4.64491 25.5985 4.47329 25.888C4.17616 26.3885 3.91416 26.91 3.62617 27.4161C3.28988 28.007 2.94408 28.5929 2.59608 29.1773C2.54156 29.2688 2.46435 29.3537 2.38055 29.4199C2.19539 29.5663 1.96083 29.5604 1.81227 29.4221C1.67212 29.2918 1.63991 29.0283 1.76872 28.852C2.0267 28.4981 2.29932 28.1552 2.56461 27.8069C2.63817 27.7103 2.72635 27.6181 2.77319 27.509C3.05093 26.8639 3.53469 26.3563 3.91818 25.7822C4.12639 25.4701 4.37706 25.1868 4.60027 24.8842C4.6709 24.7883 4.71334 24.672 4.77189 24.5666C4.83922 24.4455 4.9157 24.3331 5.0833 24.3741C5.25272 24.4155 5.21284 24.553 5.21796 24.6705C5.21906 24.6939 5.22674 24.7177 5.2465 24.8209Z" fill="black"/>
  <path d="M0.566656 35.7969C0.270986 35.4745 0.277939 35.454 0.514329 35.1562C0.671678 34.9578 0.805973 34.7401 0.940635 34.525C1.2224 34.0738 1.5005 33.6204 1.77458 33.1644C1.89315 32.9668 1.98243 32.7506 2.1127 32.5618C2.21992 32.4062 2.36117 32.2712 2.50278 32.1442C2.54047 32.1106 2.6583 32.1142 2.69745 32.1483C2.73771 32.1841 2.75637 32.2899 2.73368 32.3437C2.62134 32.6115 2.49912 32.8757 2.36702 33.1341C2.28908 33.2867 2.21114 33.4246 2.22907 33.612C2.23931 33.7196 2.18442 33.8517 2.11892 33.9446C1.8485 34.3274 1.56052 34.698 1.28351 35.0768C1.22094 35.1624 1.15653 35.2553 1.12616 35.3549C1.03761 35.6421 0.808901 35.7267 0.566656 35.7969Z" fill="black"/>
</svg>
