<svg width="37" height="39" viewBox="0 0 37 39" fill="none" 
  xmlns="http://www.w3.org/2000/svg">
  <path d="M11.3332 5.65059C12.1144 5.5763 13.0098 5.77171 13.9093 5.92833C13.9569 5.93674 14.0063 5.94699 14.0491 5.96821C14.4048 6.14788 14.7637 6.3228 15.1128 6.51491C15.3463 6.64335 15.5783 6.7813 15.788 6.94451C15.9958 7.10625 16.1751 7.30495 16.3669 7.48791C16.4635 7.58049 16.5586 7.67453 16.6559 7.76638C16.9209 8.01631 17.2209 8.23843 17.4434 8.52129C17.7329 8.88868 17.9927 9.28791 18.2031 9.70507C18.3231 9.94329 18.3293 10.2423 18.3689 10.5167C18.3981 10.7194 18.3948 10.9167 18.5269 11.1029C18.5994 11.205 18.5994 11.3839 18.5811 11.5215C18.516 12.0104 18.471 12.5073 18.3418 12.9805C18.0779 13.948 17.9129 14.9572 17.2864 15.7912C16.8623 16.3554 16.4412 16.9091 15.803 17.2721C15.3082 17.5539 14.8669 17.9282 14.389 18.2418C13.7457 18.6634 13.0673 19.0154 12.2934 19.1321C12.1258 19.1574 11.9534 19.1486 11.784 19.1654C11.5304 19.1903 11.2739 19.2075 11.0247 19.2573C10.5208 19.3579 10.0283 19.2474 9.53828 19.1789C9.18077 19.1292 8.83314 19.0015 8.48514 18.8953C8.09909 18.7779 7.81257 18.5042 7.53776 18.2301C7.21135 17.9044 6.90653 17.5568 6.59879 17.2128C6.12674 16.6855 5.67408 16.1395 5.40366 15.4776C5.20606 14.9942 5.04323 14.4958 4.88002 13.9992C4.69852 13.4459 4.51263 12.8923 4.37175 12.328C4.30588 12.0649 4.2938 11.7671 4.34357 11.5014C4.41456 11.1238 4.55361 10.7567 4.68644 10.3934C4.78195 10.1314 4.91771 9.88437 5.03005 9.62786C5.16288 9.3245 5.34072 9.05701 5.56394 8.80745C5.87754 8.45689 6.12601 8.04595 6.45241 7.70929C7.02692 7.11722 7.61131 6.53906 8.40171 6.20533C8.96597 5.96711 9.53865 5.76951 10.1347 5.66156C10.4769 5.60009 10.8388 5.65059 11.3332 5.65059Z" fill="black"/>
  <path d="M26.2649 27.9506C26.7402 27.8858 27.1951 28.18 27.6733 28.3795C28.3558 28.6638 29.0207 28.9902 29.7321 29.2043C29.9458 29.2687 30.121 29.2716 30.3157 29.1465C31.0959 28.6451 31.9554 28.3096 32.8128 27.9696C33.6098 27.6535 34.4247 27.5342 35.2722 27.7106C35.3081 27.7179 35.3447 27.7215 35.3801 27.73C35.524 27.7647 35.6758 27.7977 35.7073 27.9737C35.7384 28.1482 35.6392 28.277 35.5192 28.3831C35.4475 28.4464 35.3597 28.4955 35.2726 28.5376C34.7039 28.812 34.129 29.0736 33.5659 29.358C33.2636 29.5106 32.9749 29.6917 32.6898 29.8754C32.2529 30.1575 31.8248 30.4444 31.4398 30.8074C31.1292 31.1002 30.7266 31.3047 30.3439 31.5093C29.9941 31.6963 29.8762 31.6165 29.6779 31.2732C29.5732 31.0928 29.4133 30.9267 29.2417 30.8063C28.8344 30.5205 28.4213 30.2351 27.9807 30.0071C27.5519 29.7854 27.09 29.6251 26.6352 29.4575C26.3739 29.3613 26.1009 29.2917 25.8283 29.2328C25.5224 29.1666 25.2128 29.1044 24.9014 29.0799C24.5388 29.0513 24.1729 29.0682 23.8088 29.0594C23.6503 29.0554 23.4535 28.8676 23.4505 28.7055C23.4476 28.55 23.5127 28.4131 23.6803 28.374C24.1158 28.2719 24.552 28.1709 24.9911 28.0849C25.289 28.0267 25.5912 27.9912 25.8927 27.9524C25.9886 27.9404 26.087 27.9506 26.2649 27.9506Z" fill="black"/>
  <path d="M11.2077 29.9874C11.2194 29.4542 11.2432 28.9214 11.2391 28.3883C11.234 27.6721 11.2794 26.9454 11.1733 26.2428C11.0232 25.2468 11.0997 24.2518 11.05 23.2576C11.0262 22.7844 11.0474 22.3091 11.0437 21.8345C11.043 21.7383 11.0309 21.6402 11.0101 21.5461C10.9819 21.4188 10.8805 21.2728 11.009 21.1725C11.166 21.0499 11.3475 20.912 11.5341 20.8834C11.8832 20.8297 12.0724 21.0174 12.1218 21.3742C12.1283 21.4225 12.1331 21.4715 12.1313 21.5198C12.1137 22.0394 12.0936 22.559 12.0764 23.0783C12.065 23.4303 12.0416 23.7834 12.0515 24.1351C12.0771 25.0199 12.0032 25.904 12.1089 26.7917C12.1916 27.4874 12.1492 28.198 12.1624 28.902C11.982 29.2734 12.076 29.6522 12.1119 30.036C12.1423 30.3603 12.113 30.6911 12.0929 31.0178C12.0877 31.1013 12.0383 31.2125 11.9728 31.2568C11.6991 31.4416 11.2622 31.1968 11.2552 30.8634C11.2523 30.7174 11.2615 30.571 11.2629 30.425C11.2644 30.2794 11.2633 30.1337 11.2633 29.9881C11.2454 29.9881 11.2263 29.9877 11.2077 29.9874Z" fill="black"/>
  <path d="M28.0107 11.2716C27.3681 11.2936 26.7255 11.3349 26.083 11.332C25.305 11.3283 24.5274 11.2841 23.7494 11.2625C23.0816 11.2442 22.4134 11.2218 21.7456 11.2229C21.2121 11.2237 20.6786 11.2551 20.1454 11.2764C19.9588 11.2837 19.8183 11.235 19.7323 11.0488C19.6496 10.8691 19.6631 10.7267 19.748 10.5372C19.939 10.1127 20.3017 10.2002 20.6207 10.2046C21.5304 10.2174 22.4398 10.2573 23.3491 10.2895C23.8098 10.3059 24.2705 10.3422 24.7312 10.3465C25.5322 10.3539 26.3336 10.3345 27.1346 10.3433C27.4962 10.3473 27.8573 10.4018 28.2192 10.4161C28.4611 10.4256 28.7041 10.4022 28.9463 10.3989C29.0675 10.397 29.1897 10.3985 29.3093 10.4139C29.6306 10.4549 29.8425 10.7136 29.8279 11.0367C29.8213 11.1838 29.7122 11.2914 29.5296 11.291C29.2179 11.2906 28.9061 11.2647 28.594 11.2621C28.3996 11.2603 28.2053 11.2811 28.011 11.2917C28.011 11.2848 28.011 11.2782 28.0107 11.2716Z" fill="black"/>
  <path d="M5.87168 5.82698C5.6975 5.91773 5.60236 5.9675 5.4827 6.02971C5.4827 6.10545 5.48636 6.18742 5.48197 6.26902C5.46586 6.57457 5.17569 6.73521 4.91624 6.56689C4.76694 6.46992 4.63265 6.34221 4.51335 6.20865C4.19902 5.85662 3.89786 5.49326 3.58865 5.13648C3.47814 5.00913 3.36288 4.88581 3.24541 4.76506C2.92376 4.43499 2.59663 4.11041 2.27754 3.77815C2.01736 3.507 1.76926 3.22377 1.50872 2.95262C1.36784 2.80624 1.2039 2.68147 1.06412 2.534C0.63159 2.07768 0.157347 1.65248 0.0153665 0.991975C-0.0311064 0.775346 0.0325644 0.607017 0.142709 0.445643C0.235289 0.310249 0.425571 0.272926 0.567917 0.350502C0.67367 0.408319 0.78345 0.47053 0.866882 0.555059C1.40223 1.09846 1.95625 1.62649 2.45538 2.2021C3.12356 2.97274 3.78186 3.75107 4.50164 4.47415C4.78341 4.75701 5.10762 4.99742 5.39743 5.27297C5.56064 5.42849 5.69274 5.61584 5.87168 5.82698Z" fill="black"/>
  <path d="M29.6241 16.8893C30.4679 16.9793 31.255 17.1458 31.9371 17.6479C32.1413 17.7983 32.3784 17.9044 32.5808 18.057C32.793 18.2169 32.9947 18.3958 33.1754 18.5905C33.3174 18.7431 33.4532 18.7552 33.631 18.6838C34.013 18.5305 34.3885 18.341 34.7859 18.2509C35.147 18.169 35.5335 18.188 35.9089 18.1884C35.9953 18.1884 36.1058 18.2751 36.1632 18.353C36.3224 18.5693 36.2565 18.7018 35.9982 18.7687C35.7285 18.8386 35.4595 18.9158 35.1972 19.0091C34.5927 19.2239 34.0683 19.569 33.6112 20.0176C33.4583 20.1677 33.2446 20.2368 33.1246 20.4421C33.043 20.5812 32.8516 20.5179 32.7466 20.3396C32.6419 20.1625 32.5541 19.9748 32.4377 19.8061C32.1732 19.423 31.8394 19.1101 31.4611 18.8361C30.9788 18.487 30.5397 18.0749 29.9889 17.829C29.7244 17.7108 29.4499 17.612 29.174 17.5216C28.9684 17.4543 28.8846 17.3775 28.8915 17.2066C28.8992 17.0214 29.0119 16.9599 29.1791 16.946C29.3357 16.9336 29.4909 16.9069 29.6241 16.8893Z" fill="black"/>
  <path d="M16.2388 4.62966C16.391 4.41412 16.5505 4.17371 16.7251 3.94464C16.9227 3.68519 17.1291 3.43161 17.3402 3.18278C17.678 2.78501 18.0249 2.39457 18.3633 1.99717C18.4248 1.92471 18.4567 1.82738 18.517 1.75346C18.5829 1.67259 18.6583 1.55623 18.7432 1.54305C18.9682 1.50793 19.0663 1.34911 19.1838 1.19359C19.3729 0.942931 19.5775 0.704344 19.763 0.451122C19.8618 0.316461 19.9339 0.162408 20.0243 0.00579059C20.2779 0.00579059 20.5322 -0.00921371 20.7843 0.00908269C21.1792 0.0376251 21.2706 0.242176 21.0313 0.564559C20.8809 0.767283 20.6958 0.94366 20.5377 1.1409C20.4246 1.28214 20.2962 1.42559 20.2358 1.59062C20.1476 1.8314 19.987 1.99424 19.8121 2.16659C19.6229 2.35285 19.4652 2.57314 19.3038 2.78611C18.8863 3.33683 18.479 3.89524 18.0571 4.44267C17.9169 4.62453 17.7533 4.7903 17.5865 4.94874C17.1708 5.34395 16.6043 5.36481 16.2388 4.62966Z" fill="black"/>
  <path d="M18.3231 17.3881C18.4578 17.4551 18.5485 17.4906 18.6294 17.5418C19.2292 17.9238 19.7118 18.4343 20.185 18.9568C20.3719 19.1636 20.5827 19.3487 20.7803 19.546C20.9596 19.7253 21.1269 19.9178 21.316 20.0861C21.4489 20.2043 21.6194 20.28 21.7559 20.3953C22.1518 20.7297 22.5419 21.0715 22.9261 21.4192C22.9891 21.4762 23.0623 21.5922 23.044 21.6563C22.9682 21.9216 22.9203 22.2041 22.7091 22.413C22.554 22.5667 22.4786 22.5916 22.3008 22.458C22.0699 22.2846 21.8525 22.0921 21.6381 21.8985C21.278 21.5739 20.9142 21.2519 20.5706 20.9101C20.2014 20.5431 19.8567 20.1516 19.4955 19.7761C19.0663 19.3301 18.629 18.8913 18.1991 18.4456C18.1076 18.3508 18.0304 18.2425 17.9502 18.1375C17.8555 18.0138 17.7047 17.8744 17.8445 17.7247C17.9777 17.5824 18.1691 17.4931 18.3231 17.3881Z" fill="black"/>
  <path d="M18.5397 36.0709C18.7388 36.1262 19.03 36.1558 19.2679 36.2846C19.5903 36.4592 19.9727 36.5678 20.1714 36.9323C20.201 36.9868 20.3349 37.007 20.4195 37.004C20.5516 36.9993 20.6862 36.9737 20.8128 36.9349C21.4624 36.7362 22.1188 36.8434 22.7662 36.9166C23.015 36.9447 23.2532 37.1171 23.4808 37.2499C23.5335 37.2807 23.5639 37.4351 23.535 37.5024C23.4724 37.6488 23.3604 37.7769 23.1687 37.7373C23.0022 37.7029 22.8335 37.6678 22.6751 37.6085C22.338 37.4823 21.9948 37.5368 21.6658 37.5954C21.2318 37.6722 20.8403 37.8786 20.5069 38.1732C20.4191 38.2507 20.3598 38.3609 20.2907 38.459C20.134 38.6818 19.9097 38.699 19.7593 38.4729C19.647 38.3038 19.5643 38.1102 19.4959 37.9178C19.4296 37.7322 19.318 37.5976 19.1475 37.5163C18.7413 37.3235 18.337 37.1233 17.9184 36.9612C17.7866 36.91 17.6091 36.9539 17.4573 36.9813C17.1949 37.0289 16.9384 37.1149 16.6749 37.1522C16.4192 37.1885 16.2534 36.9989 16.3438 36.7757C16.3829 36.6794 16.5037 36.6048 16.6025 36.5463C17.1755 36.2067 17.8207 36.1499 18.5397 36.0709Z" fill="black"/>
  <path d="M4.53129 18.2488C4.6052 18.3779 4.66192 18.4753 4.71644 18.5737C4.80793 18.7384 4.69486 19.1292 4.49908 19.1951C4.31758 19.2562 4.22976 19.3886 4.11632 19.5116C3.93592 19.7077 3.74051 19.89 3.5656 20.0908C2.95194 20.7956 2.34779 21.5085 1.73267 22.2121C1.568 22.4006 1.4187 22.6205 1.14096 22.6769C0.904207 22.532 0.803942 22.2904 0.719412 22.0573C0.634517 21.8224 0.656841 21.5648 0.840537 21.3756C1.48091 20.7169 1.99211 19.9408 2.71006 19.3517C3.0372 19.0834 3.34605 18.7874 3.63147 18.4753C3.89494 18.1877 4.17158 18.0786 4.53129 18.2488Z" fill="black"/>
  <path d="M11.8652 2.37846C11.8652 2.63388 11.8674 2.88929 11.8645 3.14471C11.8619 3.3822 11.8026 3.43672 11.567 3.4649C11.3873 3.48649 11.2084 3.51869 11.0305 3.55419C10.7261 3.61493 10.5585 3.48905 10.5727 3.18753C10.5855 2.9204 10.6349 2.654 10.6324 2.38797C10.628 1.90312 10.598 1.41863 10.5775 0.934144C10.5636 0.597856 10.8194 0.227535 11.1385 0.136785C11.2676 0.100192 11.3833 0.119588 11.4261 0.275473C11.4389 0.322312 11.4345 0.387444 11.4649 0.413791C11.9366 0.823996 11.7997 1.38826 11.8451 1.90495C11.859 2.06193 11.8473 2.22075 11.8473 2.37883C11.8531 2.37846 11.859 2.37846 11.8652 2.37846Z" fill="black"/>
  <path d="M0.487793 13.0767C0.518897 12.7097 0.539023 12.3471 0.584399 11.9877C0.603793 11.8351 0.708812 11.7323 0.883725 11.7199C1.06523 11.7067 1.24709 11.6858 1.42567 11.6525C1.57753 11.6244 1.72902 11.5834 1.87429 11.5303C2.13301 11.4355 2.20583 11.4864 2.19961 11.8289C2.42502 11.8919 2.66323 11.9585 2.90914 12.0276C2.97464 12.2281 2.84766 12.3789 2.72251 12.4982C2.5959 12.6186 2.49601 12.7328 2.44112 12.9051C2.36281 13.1503 2.3167 13.151 2.05323 13.0694C1.96614 13.0423 1.86112 13.0456 1.77 13.0643C1.56801 13.1056 1.35943 13.1422 1.17244 13.2242C0.913732 13.3369 0.70552 13.2996 0.487793 13.0767Z" fill="black"/>
</svg>
