<svg width="27" height="41" viewBox="0 0 27 41" fill="none" 
  xmlns="http://www.w3.org/2000/svg">
  <path d="M14.4823 21.7385C14.5782 22.8411 14.6821 23.9432 14.7659 25.0469C14.8025 25.5314 14.7956 26.0191 14.8131 26.5051C14.8285 26.9296 14.8259 27.3566 14.8757 27.7774C14.9965 28.7973 14.8999 29.8138 14.8797 30.8326C14.8673 31.4616 14.9251 32.0936 14.9745 32.7222C15.0305 33.4372 15.1355 34.149 15.1758 34.8647C15.2142 35.5446 15.1966 36.2274 15.2036 36.9088C15.2058 37.1156 15.2021 37.3227 15.2087 37.5294C15.2288 38.1734 15.2544 38.8175 15.2724 39.4615C15.276 39.5947 15.2665 39.7308 15.2438 39.8618C15.208 40.0693 15.0627 40.1795 14.8761 40.0949C14.4721 39.912 14.063 40.0053 13.6542 40.0185C13.4237 40.0258 13.1939 40.0444 12.9637 40.0605C12.7705 40.0741 12.578 40.0975 12.3845 40.1045C12.2271 40.1099 12.0672 40.1121 11.9121 40.0894C11.7269 40.0624 11.6025 39.957 11.5922 39.751C11.5791 39.4838 11.5513 39.2167 11.5465 38.9496C11.5293 37.9539 11.5278 36.9582 11.5029 35.9629C11.4861 35.2822 11.4349 34.6027 11.4085 33.9225C11.3902 33.4479 11.3877 32.9729 11.3774 32.4983C11.3752 32.4013 11.3687 32.3043 11.3661 32.2074C11.3438 31.3075 11.3291 30.4077 11.2969 29.5083C11.2739 28.8646 11.2208 28.2224 11.1937 27.5787C11.174 27.1052 11.1835 26.6306 11.1637 26.1571C11.1392 25.5753 11.0982 24.9942 11.0638 24.4131C11.0609 24.3663 11.0448 24.3179 11.0525 24.2733C11.1528 23.6864 11.0097 23.1129 10.9617 22.5344C10.9416 22.2925 10.9284 22.0499 10.9109 21.8077C10.8692 21.2259 10.8322 20.6437 10.7828 20.0626C10.7532 19.7113 10.7678 19.663 11.1271 19.6183C11.3518 19.5902 11.5933 19.577 11.8103 19.6286C12.3969 19.768 12.9414 19.6842 13.4662 19.409C13.5093 19.3863 13.547 19.3538 13.5906 19.3325C13.9858 19.1368 14.3466 19.3025 14.4523 19.7325C14.5906 20.296 14.5639 20.8694 14.5464 21.4421C14.5434 21.5391 14.5328 21.6361 14.5259 21.733C14.5116 21.7352 14.497 21.7371 14.4823 21.7385Z" fill="black"/>
  <path d="M13.506 8.10623C13.506 8.73892 13.4994 9.37162 13.5082 10.0043C13.5152 10.4906 13.5415 10.9766 13.5598 11.4629C13.5605 11.487 13.5701 11.5108 13.5708 11.535C13.5957 12.1249 13.4076 12.4264 12.7368 12.1933C12.391 12.0729 12.0712 12.126 11.754 12.2892C11.4535 12.4439 11.1652 12.6247 10.8026 12.6229C10.4319 12.6211 10.3294 12.501 10.3949 12.1325C10.4414 11.8705 10.4597 11.6023 10.4732 11.3363C10.4985 10.8386 10.5051 10.3399 10.5296 9.84184C10.6086 8.23724 10.7005 6.63338 10.7714 5.02879C10.8121 4.10518 10.8172 3.17975 10.8479 2.25542C10.8611 1.85436 10.9006 1.4544 10.9233 1.0537C10.9358 0.836343 10.9475 0.617889 10.9442 0.400162C10.9409 0.170359 11.0013 0.062777 11.1897 0.0163041C11.395 -0.034194 11.5728 0.0313025 11.6328 0.231099C11.7445 0.601784 11.8242 0.982352 11.9172 1.35853C12.0742 1.99414 12.226 2.63123 12.3899 3.26501C12.5967 4.06383 12.9502 4.81947 13.0797 5.64208C13.1097 5.83163 13.1888 6.01605 13.2641 6.19463C13.4647 6.66997 13.4409 7.17129 13.45 7.66895C13.4526 7.81459 13.4504 7.96023 13.4504 8.10587C13.4694 8.1066 13.4877 8.1066 13.506 8.10623Z" fill="black"/>
  <path d="M0 27.3727C0.0929457 27.3848 0.164302 27.3833 0.228705 27.4038C0.551453 27.5077 0.77906 27.4481 1.00118 27.1894C1.36198 26.7693 1.72169 26.3481 2.0814 25.9269C2.09713 25.9086 2.11214 25.8885 2.12202 25.8665C2.40305 25.2372 2.90766 24.7611 3.27469 24.1902C3.43789 23.9363 3.6494 23.7142 3.82431 23.4672C4.03289 23.1733 4.22098 22.8648 4.427 22.5692C4.53714 22.4115 4.67107 22.2706 4.78597 22.1158C4.90856 21.9508 5.02968 21.7835 5.1369 21.6086C5.33852 21.2793 5.50612 20.9265 5.73263 20.6162C5.93133 20.3432 6.18455 20.1079 6.42496 19.8675C6.91457 19.3775 7.4137 18.8971 7.90514 18.4086C8.15324 18.1623 8.4072 17.9266 8.55942 17.5933C8.66554 17.3613 8.84887 17.3653 9.01134 17.5721C9.10063 17.6855 9.16613 17.8176 9.23785 17.9438C9.39337 18.2179 9.5262 18.5077 9.70587 18.765C9.84932 18.9703 10.0279 19.1752 10.3367 19.1009C10.459 19.0716 10.5548 19.1064 10.6112 19.2213C10.6701 19.3417 10.6639 19.4577 10.5676 19.5587C10.3916 19.7435 10.2204 19.9334 10.0363 20.1098C9.49254 20.6305 8.94511 21.1475 8.39622 21.6628C7.96259 22.0697 7.52238 22.4693 7.08949 22.8766C6.85054 23.1012 6.60244 23.3204 6.38983 23.5685C5.97451 24.0534 5.43915 24.3995 4.98065 24.8332C4.55763 25.2331 4.1456 25.6448 3.71454 26.036C3.38191 26.3379 3.02659 26.6145 2.68371 26.905C2.16629 27.3434 1.66204 27.7986 1.12889 28.2169C0.935311 28.3688 0.682455 28.4599 0.442772 28.5345C0.247001 28.5956 0.0995319 28.3863 0.168692 28.1917C0.214799 28.0621 0.418985 27.979 0.312866 27.8118C0.237485 27.6929 0.114171 27.6043 0.0153706 27.4993C0.00329496 27.4858 0.00951413 27.4543 0 27.3727Z" fill="black"/>
  <path d="M14.8508 19.061C14.9807 18.8572 15.0854 18.6691 15.2135 18.4986C15.3368 18.3347 15.5044 18.2018 15.6163 18.0313C15.7547 17.8209 15.8996 17.6068 15.8915 17.3287C15.8875 17.1941 16.2395 16.8183 16.3661 16.8311C16.4876 16.8435 16.6267 16.9028 16.7149 16.9866C16.9886 17.246 17.2443 17.5249 17.5031 17.7997C17.8679 18.1872 18.2276 18.5791 18.5924 18.9663C18.8006 19.1873 19.0107 19.4068 19.2269 19.6202C20.5099 20.8845 21.7932 22.1484 23.0802 23.4083C23.4366 23.7574 23.8025 24.0973 24.1703 24.435C24.5545 24.7878 24.9504 25.1281 25.3336 25.482C25.6197 25.7462 25.8949 26.0217 26.1715 26.2962C26.2312 26.3554 26.2839 26.4257 26.3256 26.4989C26.4182 26.6606 26.3896 26.8194 26.2605 26.923C26.1397 27.0192 25.9414 27.0306 25.8235 26.9234C25.1594 26.3185 24.3379 25.9551 23.5961 25.4695C23.0575 25.1168 22.5137 24.7695 21.9568 24.4464C21.4419 24.1478 20.9088 23.8799 20.38 23.6066C19.8893 23.353 19.4725 23.0028 19.0612 22.642C18.7051 22.3299 18.3399 22.028 17.9802 21.7199C17.4456 21.2617 16.9168 20.7963 16.3756 20.3458C16.1521 20.1595 15.9032 20.0037 15.6654 19.8342C15.467 19.693 15.2581 19.5645 15.074 19.4072C14.9822 19.3285 14.9357 19.1972 14.8508 19.061Z" fill="black"/>
  <path d="M9.36995 16.1625C9.39008 15.3114 9.71356 14.596 10.1991 13.9307C10.4439 13.5952 10.8048 13.4437 11.1557 13.2925C11.5362 13.129 11.9501 13.0913 12.3709 13.1034C12.8067 13.1158 13.1734 13.279 13.5148 13.5249C13.6623 13.631 13.7907 13.7649 13.9422 13.8641C14.5259 14.2465 14.7656 14.8346 14.9171 15.4738C14.9869 15.7688 15.032 16.0696 15.089 16.3674C15.3031 17.4872 14.4838 18.701 13.3029 18.8674C12.5308 18.9761 11.8345 18.8415 11.1275 18.6069C11.0818 18.5919 11.036 18.5692 10.9987 18.5392C10.3982 18.0602 9.82809 17.5501 9.51449 16.8285C9.42594 16.6239 9.41606 16.3854 9.36995 16.1625Z" fill="black"/>
</svg>
